<svg width="496" height="98" viewBox="0 0 496 98" fill="none" xmlns="http://www.w3.org/2000/svg">
<g clip-path="url(#clip0_34_926)">
<path d="M22.68 11.92V17.4H15.24V40H8.4V17.4H0.96V11.92H22.68ZM36.2728 40.32C34.0861 40.32 32.1128 39.8533 30.3528 38.92C28.6195 37.9867 27.2461 36.6533 26.2328 34.92C25.2461 33.1867 24.7528 31.16 24.7528 28.84C24.7528 26.5467 25.2595 24.5333 26.2728 22.8C27.2861 21.04 28.6728 19.6933 30.4328 18.76C32.1928 17.8267 34.1661 17.36 36.3528 17.36C38.5395 17.36 40.5128 17.8267 42.2728 18.76C44.0328 19.6933 45.4195 21.04 46.4328 22.8C47.4461 24.5333 47.9528 26.5467 47.9528 28.84C47.9528 31.1333 47.4328 33.16 46.3928 34.92C45.3795 36.6533 43.9795 37.9867 42.1928 38.92C40.4328 39.8533 38.4595 40.32 36.2728 40.32ZM36.2728 34.4C37.5795 34.4 38.6861 33.92 39.5928 32.96C40.5261 32 40.9928 30.6267 40.9928 28.84C40.9928 27.0533 40.5395 25.68 39.6328 24.72C38.7528 23.76 37.6595 23.28 36.3528 23.28C35.0195 23.28 33.9128 23.76 33.0328 24.72C32.1528 25.6533 31.7128 27.0267 31.7128 28.84C31.7128 30.6267 32.1395 32 32.9928 32.96C33.8728 33.92 34.9661 34.4 36.2728 34.4ZM65.1816 17.44C67.7949 17.44 69.8749 18.2933 71.4216 20C72.9949 21.68 73.7816 24 73.7816 26.96V40H66.9816V27.88C66.9816 26.3867 66.5949 25.2267 65.8216 24.4C65.0482 23.5733 64.0082 23.16 62.7016 23.16C61.3949 23.16 60.3549 23.5733 59.5816 24.4C58.8082 25.2267 58.4216 26.3867 58.4216 27.88V40H51.5816V17.68H58.4216V20.64C59.1149 19.6533 60.0482 18.88 61.2216 18.32C62.3949 17.7333 63.7149 17.44 65.1816 17.44ZM81.9747 15.36C80.7747 15.36 79.788 15.0133 79.0147 14.32C78.268 13.6 77.8947 12.72 77.8947 11.68C77.8947 10.6133 78.268 9.73333 79.0147 9.04C79.788 8.32 80.7747 7.96 81.9747 7.96C83.148 7.96 84.108 8.32 84.8547 9.04C85.628 9.73333 86.0147 10.6133 86.0147 11.68C86.0147 12.72 85.628 13.6 84.8547 14.32C84.108 15.0133 83.148 15.36 81.9747 15.36ZM85.3747 17.68V40H78.5347V17.68H85.3747ZM88.9716 28.84C88.9716 26.52 89.4382 24.4933 90.3716 22.76C91.3316 21.0267 92.6516 19.6933 94.3316 18.76C96.0382 17.8267 97.9849 17.36 100.172 17.36C102.972 17.36 105.305 18.0933 107.172 19.56C109.065 21.0267 110.305 23.0933 110.892 25.76H103.612C102.998 24.0533 101.812 23.2 100.052 23.2C98.7982 23.2 97.7982 23.6933 97.0516 24.68C96.3049 25.64 95.9316 27.0267 95.9316 28.84C95.9316 30.6533 96.3049 32.0533 97.0516 33.04C97.7982 34 98.7982 34.48 100.052 34.48C101.812 34.48 102.998 33.6267 103.612 31.92H110.892C110.305 34.5333 109.065 36.5867 107.172 38.08C105.278 39.5733 102.945 40.32 100.172 40.32C97.9849 40.32 96.0382 39.8533 94.3316 38.92C92.6516 37.9867 91.3316 36.6533 90.3716 34.92C89.4382 33.1867 88.9716 31.16 88.9716 28.84Z" fill="#091E42"/>
<g clip-path="url(#clip1_34_926)">
<path d="M6.912 71.166C8.472 71.166 9.768 71.562 10.8 72.354C11.832 73.146 12.528 74.22 12.888 75.576H10.71C10.41 74.808 9.93 74.202 9.27 73.758C8.622 73.302 7.824 73.074 6.876 73.074C6.12 73.074 5.442 73.26 4.842 73.632C4.254 74.004 3.786 74.538 3.438 75.234C3.102 75.918 2.934 76.722 2.934 77.646C2.934 78.558 3.102 79.362 3.438 80.058C3.786 80.742 4.254 81.27 4.842 81.642C5.442 82.014 6.12 82.2 6.876 82.2C7.824 82.2 8.622 81.978 9.27 81.534C9.93 81.078 10.41 80.472 10.71 79.716H12.888C12.528 81.072 11.832 82.146 10.8 82.938C9.768 83.718 8.472 84.108 6.912 84.108C5.712 84.108 4.65 83.838 3.726 83.298C2.802 82.746 2.088 81.984 1.584 81.012C1.08 80.028 0.828 78.906 0.828 77.646C0.828 76.386 1.08 75.27 1.584 74.298C2.088 73.314 2.802 72.546 3.726 71.994C4.65 71.442 5.712 71.166 6.912 71.166ZM22.5134 81.246H17.1494L16.1774 84H13.9814L18.6614 71.49H21.0194L25.6814 84H23.4854L22.5134 81.246ZM21.9374 79.662L19.8314 73.722L17.7254 79.662H21.9374ZM37.4829 84H35.4309L29.2569 74.622V84H27.2049V71.31H29.2569L35.4309 80.724V71.31H37.4829V84ZM45.8526 71.13C47.0286 71.13 48.0906 71.406 49.0386 71.958C49.9986 72.51 50.7486 73.284 51.2886 74.28C51.8406 75.264 52.1166 76.38 52.1166 77.628C52.1166 78.876 51.8406 79.998 51.2886 80.994C50.7486 81.978 49.9986 82.752 49.0386 83.316C48.0906 83.868 47.0286 84.144 45.8526 84.144C44.6646 84.144 43.5906 83.868 42.6306 83.316C41.6826 82.752 40.9326 81.978 40.3806 80.994C39.8286 79.998 39.5526 78.876 39.5526 77.628C39.5526 76.38 39.8286 75.264 40.3806 74.28C40.9326 73.284 41.6826 72.51 42.6306 71.958C43.5906 71.406 44.6646 71.13 45.8526 71.13ZM45.8526 73.038C45.0366 73.038 44.3106 73.224 43.6746 73.596C43.0386 73.968 42.5406 74.502 42.1806 75.198C41.8326 75.894 41.6586 76.704 41.6586 77.628C41.6586 78.552 41.8326 79.362 42.1806 80.058C42.5406 80.754 43.0386 81.288 43.6746 81.66C44.3106 82.032 45.0366 82.218 45.8526 82.218C46.6566 82.218 47.3706 82.032 47.9946 81.66C48.6306 81.288 49.1226 80.754 49.4706 80.058C49.8306 79.362 50.0106 78.552 50.0106 77.628C50.0106 76.704 49.8306 75.894 49.4706 75.198C49.1226 74.502 48.6306 73.968 47.9946 73.596C47.3706 73.224 46.6566 73.038 45.8526 73.038ZM56.2393 79.068V84H54.1873V71.292H58.5073C59.9713 71.292 61.0693 71.64 61.8013 72.336C62.5453 73.032 62.9173 73.986 62.9173 75.198C62.9173 76.398 62.5393 77.346 61.7833 78.042C61.0273 78.726 59.9353 79.068 58.5073 79.068H56.2393ZM58.2913 77.394C59.9833 77.394 60.8293 76.662 60.8293 75.198C60.8293 74.478 60.6253 73.932 60.2173 73.56C59.8213 73.176 59.1793 72.984 58.2913 72.984H56.2393V77.394H58.2913ZM74.3106 71.292L70.0806 79.374V84H68.0106V79.374L63.7626 71.292H66.1386L69.0546 77.178L71.9706 71.292H74.3106Z" fill="#344563"/>
<circle cx="91" cy="78" r="4" fill="#C1C7D0"/>
<path d="M114.506 77.43C115.286 77.598 115.916 77.97 116.396 78.546C116.888 79.122 117.134 79.8 117.134 80.58C117.134 81.612 116.78 82.44 116.072 83.064C115.376 83.688 114.362 84 113.03 84H108.314V71.31H112.958C114.23 71.31 115.196 71.592 115.856 72.156C116.516 72.72 116.846 73.494 116.846 74.478C116.846 75.294 116.624 75.954 116.18 76.458C115.748 76.962 115.19 77.286 114.506 77.43ZM109.952 76.872H112.688C113.492 76.872 114.104 76.686 114.524 76.314C114.956 75.942 115.172 75.42 115.172 74.748C115.172 74.1 114.962 73.59 114.542 73.218C114.122 72.846 113.48 72.66 112.616 72.66H109.952V76.872ZM112.724 82.632C113.588 82.632 114.254 82.434 114.722 82.038C115.202 81.642 115.442 81.084 115.442 80.364C115.442 79.656 115.196 79.104 114.704 78.708C114.224 78.3 113.552 78.096 112.688 78.096H109.952V82.632H112.724ZM123.227 73.992C124.187 73.992 124.997 74.232 125.657 74.712C126.329 75.192 126.797 75.834 127.061 76.638V74.118H128.699V84H127.061V81.48C126.797 82.284 126.329 82.926 125.657 83.406C124.997 83.886 124.187 84.126 123.227 84.126C122.351 84.126 121.571 83.922 120.887 83.514C120.203 83.106 119.663 82.524 119.267 81.768C118.883 81 118.691 80.1 118.691 79.068C118.691 78.036 118.883 77.136 119.267 76.368C119.663 75.6 120.203 75.012 120.887 74.604C121.571 74.196 122.351 73.992 123.227 73.992ZM123.695 75.45C122.687 75.45 121.877 75.774 121.265 76.422C120.665 77.058 120.365 77.94 120.365 79.068C120.365 80.196 120.665 81.084 121.265 81.732C121.877 82.368 122.687 82.686 123.695 82.686C124.343 82.686 124.919 82.536 125.423 82.236C125.939 81.936 126.341 81.516 126.629 80.976C126.917 80.424 127.061 79.788 127.061 79.068C127.061 78.348 126.917 77.712 126.629 77.16C126.341 76.608 125.939 76.188 125.423 75.9C124.919 75.6 124.343 75.45 123.695 75.45ZM135.68 73.992C136.94 73.992 137.984 74.328 138.812 75C139.64 75.672 140.15 76.572 140.342 77.7H138.614C138.494 76.992 138.164 76.44 137.624 76.044C137.096 75.636 136.436 75.432 135.644 75.432C135.068 75.432 134.54 75.564 134.06 75.828C133.592 76.092 133.214 76.5 132.926 77.052C132.638 77.592 132.494 78.264 132.494 79.068C132.494 79.872 132.638 80.55 132.926 81.102C133.214 81.642 133.592 82.044 134.06 82.308C134.54 82.572 135.068 82.704 135.644 82.704C136.436 82.704 137.096 82.5 137.624 82.092C138.164 81.684 138.494 81.126 138.614 80.418H140.342C140.15 81.558 139.64 82.464 138.812 83.136C137.984 83.796 136.94 84.126 135.68 84.126C134.732 84.126 133.892 83.922 133.16 83.514C132.428 83.106 131.852 82.524 131.432 81.768C131.024 81 130.82 80.1 130.82 79.068C130.82 78.036 131.024 77.136 131.432 76.368C131.852 75.6 132.428 75.012 133.16 74.604C133.892 74.196 134.732 73.992 135.68 73.992ZM147.904 84L144.124 79.554V84H142.486V70.68H144.124V78.42L147.85 74.118H149.848L145.42 79.032L149.956 84H147.904ZM157.483 72.642V76.98H162.307V78.24H157.483V82.668H162.847V84H155.845V71.31H162.847V72.642H157.483ZM170.153 73.956C171.305 73.956 172.235 74.328 172.943 75.072C173.651 75.804 174.005 76.866 174.005 78.258V84H172.367V78.402C172.367 77.418 172.115 76.662 171.611 76.134C171.107 75.606 170.423 75.342 169.559 75.342C168.659 75.342 167.939 75.636 167.399 76.224C166.859 76.8 166.589 77.646 166.589 78.762V84H164.951V74.118H166.589V76.458C166.841 75.654 167.285 75.036 167.921 74.604C168.569 74.172 169.313 73.956 170.153 73.956ZM180.567 73.992C181.527 73.992 182.337 74.232 182.997 74.712C183.669 75.192 184.137 75.834 184.401 76.638V70.68H186.039V84H184.401V81.48C184.137 82.284 183.669 82.926 182.997 83.406C182.337 83.886 181.527 84.126 180.567 84.126C179.691 84.126 178.911 83.922 178.227 83.514C177.543 83.106 177.003 82.524 176.607 81.768C176.223 81 176.031 80.1 176.031 79.068C176.031 78.036 176.223 77.136 176.607 76.368C177.003 75.6 177.543 75.012 178.227 74.604C178.911 74.196 179.691 73.992 180.567 73.992ZM181.035 75.45C180.027 75.45 179.217 75.774 178.605 76.422C178.005 77.058 177.705 77.94 177.705 79.068C177.705 80.196 178.005 81.084 178.605 81.732C179.217 82.368 180.027 82.686 181.035 82.686C181.683 82.686 182.259 82.536 182.763 82.236C183.279 81.936 183.681 81.516 183.969 80.976C184.257 80.424 184.401 79.788 184.401 79.068C184.401 78.348 184.257 77.712 183.969 77.16C183.681 76.608 183.279 76.188 182.763 75.9C182.259 75.6 181.683 75.45 181.035 75.45ZM203.785 77.646C203.785 78.93 203.527 80.052 203.011 81.012C202.495 81.96 201.733 82.698 200.725 83.226C199.729 83.742 198.529 84 197.125 84H193.093V71.31H197.125C198.529 71.31 199.729 71.568 200.725 72.084C201.733 72.588 202.495 73.32 203.011 74.28C203.527 75.228 203.785 76.35 203.785 77.646ZM196.999 82.524C198.655 82.524 199.921 82.098 200.797 81.246C201.673 80.394 202.111 79.194 202.111 77.646C202.111 76.098 201.673 74.898 200.797 74.046C199.933 73.182 198.667 72.75 196.999 72.75H194.731V82.524H196.999ZM215.086 78.51C215.086 78.858 215.062 79.158 215.014 79.41H207.112C207.148 80.538 207.466 81.384 208.066 81.948C208.678 82.512 209.422 82.794 210.298 82.794C211.09 82.794 211.75 82.596 212.278 82.2C212.818 81.792 213.148 81.252 213.268 80.58H215.014C214.894 81.264 214.624 81.876 214.204 82.416C213.796 82.956 213.262 83.376 212.602 83.676C211.942 83.976 211.198 84.126 210.37 84.126C209.422 84.126 208.582 83.922 207.85 83.514C207.118 83.106 206.542 82.524 206.122 81.768C205.714 81 205.51 80.1 205.51 79.068C205.51 78.036 205.714 77.136 206.122 76.368C206.542 75.6 207.118 75.012 207.85 74.604C208.582 74.196 209.422 73.992 210.37 73.992C211.33 73.992 212.164 74.196 212.872 74.604C213.592 75.012 214.138 75.558 214.51 76.242C214.894 76.926 215.086 77.682 215.086 78.51ZM213.43 78.618C213.466 77.886 213.346 77.274 213.07 76.782C212.794 76.29 212.416 75.924 211.936 75.684C211.456 75.444 210.934 75.324 210.37 75.324C209.47 75.324 208.714 75.606 208.102 76.17C207.49 76.722 207.16 77.538 207.112 78.618H213.43ZM221.062 82.254L224.122 74.118H225.886L222.016 84H220.072L216.202 74.118H217.966L221.062 82.254Z" fill="#6B778C"/>
<circle cx="243" cy="78" r="4" fill="#C1C7D0"/>
<path d="M259.756 82.74C261.796 81.372 263.428 80.016 264.652 78.672C265.876 77.316 266.488 76.056 266.488 74.892C266.488 74.172 266.302 73.596 265.93 73.164C265.57 72.72 264.982 72.498 264.166 72.498C263.326 72.498 262.69 72.768 262.258 73.308C261.826 73.836 261.586 74.568 261.538 75.504H259.918C260.002 74.088 260.44 73.002 261.232 72.246C262.024 71.478 263.044 71.094 264.292 71.094C265.48 71.094 266.422 71.412 267.118 72.048C267.814 72.684 268.162 73.584 268.162 74.748C268.162 75.708 267.85 76.686 267.226 77.682C266.614 78.666 265.84 79.584 264.904 80.436C263.98 81.276 263.026 81.99 262.042 82.578H268.486V83.928H259.756V82.74ZM270.239 77.574C270.239 79.614 270.575 81.204 271.247 82.344C271.919 83.484 273.083 84.054 274.739 84.054C276.395 84.054 277.559 83.484 278.231 82.344C278.915 81.204 279.257 79.614 279.257 77.574C279.257 75.558 278.915 73.98 278.231 72.84C277.559 71.7 276.395 71.13 274.739 71.13C273.083 71.13 271.919 71.7 271.247 72.84C270.575 73.968 270.239 75.546 270.239 77.574ZM277.637 77.574C277.637 78.618 277.559 79.494 277.403 80.202C277.259 80.898 276.977 81.456 276.557 81.876C276.137 82.296 275.531 82.506 274.739 82.506C273.959 82.506 273.359 82.296 272.939 81.876C272.519 81.456 272.231 80.898 272.075 80.202C271.931 79.494 271.859 78.618 271.859 77.574C271.859 76.542 271.931 75.678 272.075 74.982C272.231 74.286 272.519 73.734 272.939 73.326C273.359 72.906 273.959 72.696 274.739 72.696C275.531 72.696 276.137 72.906 276.557 73.326C276.977 73.734 277.259 74.286 277.403 74.982C277.559 75.678 277.637 76.542 277.637 77.574ZM280.504 72.84V71.31H284.14V84H282.412V72.84H280.504ZM295.014 72.606H288.498V76.854C288.798 76.446 289.23 76.122 289.794 75.882C290.358 75.642 290.976 75.522 291.648 75.522C292.548 75.522 293.292 75.714 293.88 76.098C294.48 76.47 294.918 76.968 295.194 77.592C295.482 78.204 295.626 78.888 295.626 79.644C295.626 80.952 295.26 82.02 294.527 82.848C293.796 83.676 292.722 84.09 291.306 84.09C290.034 84.09 288.996 83.748 288.192 83.064C287.388 82.368 286.938 81.438 286.842 80.274H288.462C288.594 81.018 288.9 81.6 289.38 82.02C289.872 82.428 290.49 82.632 291.234 82.632C292.158 82.632 292.854 82.356 293.322 81.804C293.79 81.252 294.024 80.526 294.024 79.626C294.024 78.75 293.784 78.066 293.304 77.574C292.824 77.082 292.146 76.836 291.27 76.836C290.646 76.836 290.1 76.974 289.632 77.25C289.164 77.514 288.81 77.874 288.57 78.33H286.986V71.148H295.014V72.606Z" fill="#6B778C"/>
</g>
</g>
<defs>
<clipPath id="clip0_34_926">
<rect width="496" height="98" fill="white"/>
</clipPath>
<clipPath id="clip1_34_926">
<rect width="297" height="40" fill="white" transform="translate(0 58)"/>
</clipPath>
</defs>
</svg>
