<svg width="316" height="24" viewBox="0 0 316 24" fill="none" xmlns="http://www.w3.org/2000/svg">
<g clip-path="url(#clip0_34_966)">
<rect width="53" height="24" rx="8" fill="#EBEBFF"/>
<path d="M16.524 9.28C17.292 9.28 17.908 9.528 18.372 10.024C18.836 10.52 19.068 11.228 19.068 12.148V16H17.7V12.292C17.7 11.7 17.548 11.244 17.244 10.924C16.94 10.596 16.524 10.432 15.996 10.432C15.452 10.432 15.016 10.608 14.688 10.96C14.36 11.304 14.196 11.812 14.196 12.484V16H12.828V7.12H14.196V10.84C14.372 10.344 14.668 9.96 15.084 9.688C15.5 9.416 15.98 9.28 16.524 9.28ZM24.3518 14.812V16H23.5118C22.8078 16 22.2718 15.832 21.9038 15.496C21.5438 15.152 21.3638 14.584 21.3638 13.792V10.552H20.4158V9.388H21.3638V7.744H22.7438V9.388H24.3398V10.552H22.7438V13.816C22.7438 14.192 22.8118 14.452 22.9478 14.596C23.0918 14.74 23.3398 14.812 23.6918 14.812H24.3518ZM34.2613 9.28C35.0453 9.28 35.6693 9.528 36.1333 10.024C36.6053 10.52 36.8413 11.228 36.8413 12.148V16H35.4733V12.292C35.4733 11.716 35.3293 11.272 35.0413 10.96C34.7533 10.64 34.3573 10.48 33.8533 10.48C33.3173 10.48 32.8893 10.652 32.5693 10.996C32.2573 11.332 32.1013 11.828 32.1013 12.484V16H30.7333V12.292C30.7333 11.716 30.5893 11.272 30.3013 10.96C30.0133 10.64 29.6173 10.48 29.1133 10.48C28.5773 10.48 28.1493 10.652 27.8293 10.996C27.5173 11.332 27.3613 11.828 27.3613 12.484V16H25.9933V9.388H27.3613V10.768C27.5293 10.288 27.8093 9.92 28.2013 9.664C28.5933 9.408 29.0533 9.28 29.5813 9.28C30.1333 9.28 30.6093 9.416 31.0093 9.688C31.4173 9.96 31.7133 10.352 31.8973 10.864C32.0893 10.368 32.3973 9.98 32.8213 9.7C33.2453 9.42 33.7253 9.28 34.2613 9.28ZM40.1666 7.12V16H38.7986V7.12H40.1666Z" fill="#6070FF"/>
<rect x="61" width="105" height="24" rx="8" fill="#EBEBFF"/>
<path d="M78.28 16L76.168 12.616H75.196V16H73.828V7.528H76.816C77.784 7.528 78.516 7.764 79.012 8.236C79.516 8.708 79.768 9.332 79.768 10.108C79.768 10.772 79.58 11.316 79.204 11.74C78.836 12.164 78.3 12.436 77.596 12.556L79.816 16H78.28ZM75.196 11.644H76.708C77.812 11.644 78.364 11.156 78.364 10.18C78.364 9.716 78.228 9.356 77.956 9.1C77.692 8.836 77.276 8.704 76.708 8.704H75.196V11.644ZM87.4559 9.388V16H86.0759V14.56C85.9079 15.048 85.6159 15.428 85.1999 15.7C84.7839 15.964 84.2999 16.096 83.7479 16.096C82.9799 16.096 82.3639 15.848 81.8999 15.352C81.4359 14.856 81.2039 14.148 81.2039 13.228V9.388H82.5719V13.084C82.5719 13.684 82.7239 14.148 83.0279 14.476C83.3319 14.796 83.7479 14.956 84.2759 14.956C84.8199 14.956 85.2559 14.78 85.5839 14.428C85.9119 14.076 86.0759 13.564 86.0759 12.892V9.388H87.4559ZM93.2463 9.304C93.8223 9.304 94.3343 9.44 94.7823 9.712C95.2383 9.984 95.5943 10.376 95.8503 10.888C96.1063 11.4 96.2343 12 96.2343 12.688C96.2343 13.384 96.1063 13.988 95.8503 14.5C95.5943 15.012 95.2383 15.404 94.7823 15.676C94.3343 15.948 93.8223 16.084 93.2463 16.084C92.6463 16.084 92.1343 15.936 91.7103 15.64C91.2863 15.344 90.9903 14.952 90.8223 14.464V16H89.4543V7.12H90.8223V10.924C90.9903 10.436 91.2863 10.044 91.7103 9.748C92.1343 9.452 92.6463 9.304 93.2463 9.304ZM92.8263 10.504C92.4423 10.504 92.0983 10.596 91.7943 10.78C91.4903 10.956 91.2503 11.212 91.0743 11.548C90.8983 11.876 90.8103 12.256 90.8103 12.688C90.8103 13.128 90.8983 13.512 91.0743 13.84C91.2503 14.168 91.4903 14.424 91.7943 14.608C92.0983 14.784 92.4423 14.872 92.8263 14.872C93.4343 14.872 93.9223 14.68 94.2903 14.296C94.6583 13.904 94.8423 13.368 94.8423 12.688C94.8423 12.016 94.6583 11.484 94.2903 11.092C93.9223 10.7 93.4343 10.504 92.8263 10.504ZM98.6919 9.388L100.672 14.248L102.508 9.388H104.032L100.036 19.144H98.5119L99.9399 15.844L97.1559 9.388H98.6919ZM111.488 9.304C112.128 9.304 112.704 9.44 113.216 9.712C113.728 9.984 114.128 10.376 114.416 10.888C114.704 11.4 114.848 12 114.848 12.688C114.848 13.384 114.704 13.988 114.416 14.5C114.128 15.012 113.728 15.404 113.216 15.676C112.704 15.948 112.128 16.084 111.488 16.084C110.848 16.084 110.272 15.948 109.76 15.676C109.256 15.404 108.856 15.012 108.56 14.5C108.272 13.98 108.128 13.376 108.128 12.688C108.128 12 108.272 11.4 108.56 10.888C108.856 10.376 109.256 9.984 109.76 9.712C110.272 9.44 110.848 9.304 111.488 9.304ZM111.488 10.492C111.136 10.492 110.812 10.572 110.516 10.732C110.22 10.892 109.98 11.14 109.796 11.476C109.62 11.804 109.532 12.208 109.532 12.688C109.532 13.176 109.62 13.584 109.796 13.912C109.98 14.24 110.22 14.484 110.516 14.644C110.812 14.804 111.136 14.884 111.488 14.884C111.84 14.884 112.164 14.804 112.46 14.644C112.756 14.484 112.992 14.24 113.168 13.912C113.352 13.584 113.444 13.176 113.444 12.688C113.444 12.208 113.352 11.804 113.168 11.476C112.992 11.14 112.756 10.892 112.46 10.732C112.164 10.572 111.84 10.492 111.488 10.492ZM120.219 9.28C120.987 9.28 121.603 9.528 122.067 10.024C122.531 10.52 122.763 11.228 122.763 12.148V16H121.395V12.292C121.395 11.7 121.243 11.244 120.939 10.924C120.635 10.596 120.219 10.432 119.691 10.432C119.147 10.432 118.711 10.608 118.383 10.96C118.055 11.304 117.891 11.812 117.891 12.484V16H116.523V9.388H117.891V10.84C118.067 10.344 118.363 9.96 118.779 9.688C119.195 9.416 119.675 9.28 120.219 9.28ZM129.264 10.684C129.488 10.252 129.808 9.912 130.224 9.664C130.64 9.408 131.12 9.28 131.664 9.28V10.768H131.256C130.656 10.768 130.172 10.916 129.804 11.212C129.444 11.5 129.264 11.98 129.264 12.652V16H127.896V9.388H129.264V10.684ZM135.7 9.304C136.3 9.304 136.812 9.452 137.236 9.748C137.66 10.044 137.96 10.436 138.136 10.924V9.388H139.504V16H138.136V14.464C137.96 14.952 137.66 15.344 137.236 15.64C136.812 15.936 136.3 16.084 135.7 16.084C135.124 16.084 134.608 15.948 134.152 15.676C133.704 15.404 133.352 15.012 133.096 14.5C132.84 13.988 132.712 13.384 132.712 12.688C132.712 12 132.84 11.4 133.096 10.888C133.352 10.376 133.704 9.984 134.152 9.712C134.608 9.44 135.124 9.304 135.7 9.304ZM136.12 10.504C135.512 10.504 135.024 10.7 134.656 11.092C134.296 11.476 134.116 12.008 134.116 12.688C134.116 13.368 134.296 13.904 134.656 14.296C135.024 14.68 135.512 14.872 136.12 14.872C136.504 14.872 136.848 14.784 137.152 14.608C137.456 14.424 137.696 14.168 137.872 13.84C138.048 13.512 138.136 13.128 138.136 12.688C138.136 12.256 138.048 11.876 137.872 11.548C137.696 11.212 137.456 10.956 137.152 10.78C136.848 10.596 136.504 10.504 136.12 10.504ZM141.314 7.468C141.314 7.236 141.394 7.044 141.554 6.892C141.714 6.74 141.926 6.664 142.19 6.664C142.454 6.664 142.666 6.74 142.826 6.892C142.994 7.044 143.078 7.236 143.078 7.468C143.078 7.7 142.994 7.888 142.826 8.032C142.666 8.176 142.454 8.248 142.19 8.248C141.926 8.248 141.714 8.176 141.554 8.032C141.394 7.888 141.314 7.7 141.314 7.468ZM142.874 9.388V16H141.506V9.388H142.874ZM146.258 7.12V16H144.89V7.12H146.258ZM150.445 9.304C151.221 9.304 151.841 9.504 152.305 9.904C152.777 10.296 153.065 10.824 153.169 11.488H151.873C151.817 11.128 151.661 10.84 151.405 10.624C151.157 10.4 150.825 10.288 150.409 10.288C150.065 10.288 149.797 10.372 149.605 10.54C149.421 10.7 149.329 10.92 149.329 11.2C149.329 11.408 149.397 11.576 149.533 11.704C149.669 11.832 149.837 11.932 150.037 12.004C150.245 12.076 150.537 12.156 150.913 12.244C151.409 12.356 151.809 12.472 152.113 12.592C152.425 12.712 152.689 12.904 152.905 13.168C153.129 13.424 153.241 13.776 153.241 14.224C153.241 14.776 153.029 15.224 152.605 15.568C152.189 15.912 151.625 16.084 150.913 16.084C150.089 16.084 149.421 15.892 148.909 15.508C148.405 15.124 148.101 14.588 147.997 13.9H149.329C149.369 14.26 149.529 14.552 149.809 14.776C150.089 15 150.457 15.112 150.913 15.112C151.241 15.112 151.497 15.028 151.681 14.86C151.873 14.684 151.969 14.464 151.969 14.2C151.969 13.968 151.897 13.784 151.753 13.648C151.609 13.512 151.429 13.408 151.213 13.336C150.997 13.256 150.701 13.176 150.325 13.096C149.845 12.984 149.453 12.872 149.149 12.76C148.853 12.648 148.597 12.468 148.381 12.22C148.173 11.964 148.069 11.62 148.069 11.188C148.069 10.628 148.277 10.176 148.693 9.832C149.117 9.48 149.701 9.304 150.445 9.304Z" fill="#6070FF"/>
<rect x="174" width="45" height="24" rx="8" fill="#EBEBFF"/>
<path d="M189.768 9.304C190.624 9.304 191.332 9.532 191.892 9.988C192.452 10.436 192.8 11.048 192.936 11.824H191.484C191.404 11.408 191.208 11.084 190.896 10.852C190.592 10.612 190.208 10.492 189.744 10.492C189.216 10.492 188.776 10.68 188.424 11.056C188.072 11.424 187.896 11.968 187.896 12.688C187.896 13.408 188.072 13.956 188.424 14.332C188.776 14.708 189.216 14.896 189.744 14.896C190.208 14.896 190.592 14.776 190.896 14.536C191.208 14.296 191.404 13.968 191.484 13.552H192.936C192.8 14.328 192.452 14.944 191.892 15.4C191.332 15.856 190.624 16.084 189.768 16.084C189.128 16.084 188.56 15.948 188.064 15.676C187.576 15.404 187.192 15.012 186.912 14.5C186.632 13.988 186.492 13.384 186.492 12.688C186.492 12 186.632 11.4 186.912 10.888C187.192 10.376 187.576 9.984 188.064 9.712C188.56 9.44 189.128 9.304 189.768 9.304ZM196.79 9.304C197.566 9.304 198.186 9.504 198.65 9.904C199.122 10.296 199.41 10.824 199.514 11.488H198.218C198.162 11.128 198.006 10.84 197.75 10.624C197.502 10.4 197.17 10.288 196.754 10.288C196.41 10.288 196.142 10.372 195.95 10.54C195.766 10.7 195.674 10.92 195.674 11.2C195.674 11.408 195.742 11.576 195.878 11.704C196.014 11.832 196.182 11.932 196.382 12.004C196.59 12.076 196.882 12.156 197.258 12.244C197.754 12.356 198.154 12.472 198.458 12.592C198.77 12.712 199.034 12.904 199.25 13.168C199.474 13.424 199.586 13.776 199.586 14.224C199.586 14.776 199.374 15.224 198.95 15.568C198.534 15.912 197.97 16.084 197.258 16.084C196.434 16.084 195.766 15.892 195.254 15.508C194.75 15.124 194.446 14.588 194.342 13.9H195.674C195.714 14.26 195.874 14.552 196.154 14.776C196.434 15 196.802 15.112 197.258 15.112C197.586 15.112 197.842 15.028 198.026 14.86C198.218 14.684 198.314 14.464 198.314 14.2C198.314 13.968 198.242 13.784 198.098 13.648C197.954 13.512 197.774 13.408 197.558 13.336C197.342 13.256 197.046 13.176 196.67 13.096C196.19 12.984 195.798 12.872 195.494 12.76C195.198 12.648 194.942 12.468 194.726 12.22C194.518 11.964 194.414 11.62 194.414 11.188C194.414 10.628 194.622 10.176 195.038 9.832C195.462 9.48 196.046 9.304 196.79 9.304ZM203.49 9.304C204.266 9.304 204.886 9.504 205.35 9.904C205.822 10.296 206.11 10.824 206.214 11.488H204.918C204.862 11.128 204.706 10.84 204.45 10.624C204.202 10.4 203.87 10.288 203.454 10.288C203.11 10.288 202.842 10.372 202.65 10.54C202.466 10.7 202.374 10.92 202.374 11.2C202.374 11.408 202.442 11.576 202.578 11.704C202.714 11.832 202.882 11.932 203.082 12.004C203.29 12.076 203.582 12.156 203.958 12.244C204.454 12.356 204.854 12.472 205.158 12.592C205.47 12.712 205.734 12.904 205.95 13.168C206.174 13.424 206.286 13.776 206.286 14.224C206.286 14.776 206.074 15.224 205.65 15.568C205.234 15.912 204.67 16.084 203.958 16.084C203.134 16.084 202.466 15.892 201.954 15.508C201.45 15.124 201.146 14.588 201.042 13.9H202.374C202.414 14.26 202.574 14.552 202.854 14.776C203.134 15 203.502 15.112 203.958 15.112C204.286 15.112 204.542 15.028 204.726 14.86C204.918 14.684 205.014 14.464 205.014 14.2C205.014 13.968 204.942 13.784 204.798 13.648C204.654 13.512 204.474 13.408 204.258 13.336C204.042 13.256 203.746 13.176 203.37 13.096C202.89 12.984 202.498 12.872 202.194 12.76C201.898 12.648 201.642 12.468 201.426 12.22C201.218 11.964 201.114 11.62 201.114 11.188C201.114 10.628 201.322 10.176 201.738 9.832C202.162 9.48 202.746 9.304 203.49 9.304Z" fill="#6070FF"/>
<rect x="227" width="89" height="24" rx="8" fill="#EBEBFF"/>
<path d="M240.572 8.248C240.308 8.248 240.092 8.176 239.924 8.032C239.764 7.888 239.684 7.7 239.684 7.468C239.684 7.236 239.764 7.044 239.924 6.892C240.092 6.74 240.308 6.664 240.572 6.664C240.836 6.664 241.048 6.74 241.208 6.892C241.368 7.044 241.448 7.236 241.448 7.468C241.448 7.7 241.368 7.888 241.208 8.032C241.048 8.176 240.836 8.248 240.572 8.248ZM238.652 17.944H239.12C239.384 17.944 239.576 17.884 239.696 17.764C239.824 17.652 239.888 17.456 239.888 17.176V9.388H241.268V17.188C241.268 18.492 240.612 19.144 239.3 19.144H238.652V17.944ZM245.91 9.304C246.51 9.304 247.022 9.452 247.446 9.748C247.87 10.044 248.17 10.436 248.346 10.924V9.388H249.714V16H248.346V14.464C248.17 14.952 247.87 15.344 247.446 15.64C247.022 15.936 246.51 16.084 245.91 16.084C245.334 16.084 244.818 15.948 244.362 15.676C243.914 15.404 243.562 15.012 243.306 14.5C243.05 13.988 242.922 13.384 242.922 12.688C242.922 12 243.05 11.4 243.306 10.888C243.562 10.376 243.914 9.984 244.362 9.712C244.818 9.44 245.334 9.304 245.91 9.304ZM246.33 10.504C245.722 10.504 245.234 10.7 244.866 11.092C244.506 11.476 244.326 12.008 244.326 12.688C244.326 13.368 244.506 13.904 244.866 14.296C245.234 14.68 245.722 14.872 246.33 14.872C246.714 14.872 247.058 14.784 247.362 14.608C247.666 14.424 247.906 14.168 248.082 13.84C248.258 13.512 248.346 13.128 248.346 12.688C248.346 12.256 248.258 11.876 248.082 11.548C247.906 11.212 247.666 10.956 247.362 10.78C247.058 10.596 246.714 10.504 246.33 10.504ZM254.428 14.584L256.3 9.388H257.764L255.244 16H253.588L251.068 9.388H252.532L254.428 14.584ZM261.783 9.304C262.383 9.304 262.895 9.452 263.319 9.748C263.743 10.044 264.043 10.436 264.219 10.924V9.388H265.587V16H264.219V14.464C264.043 14.952 263.743 15.344 263.319 15.64C262.895 15.936 262.383 16.084 261.783 16.084C261.207 16.084 260.691 15.948 260.235 15.676C259.787 15.404 259.435 15.012 259.179 14.5C258.923 13.988 258.795 13.384 258.795 12.688C258.795 12 258.923 11.4 259.179 10.888C259.435 10.376 259.787 9.984 260.235 9.712C260.691 9.44 261.207 9.304 261.783 9.304ZM262.203 10.504C261.595 10.504 261.107 10.7 260.739 11.092C260.379 11.476 260.199 12.008 260.199 12.688C260.199 13.368 260.379 13.904 260.739 14.296C261.107 14.68 261.595 14.872 262.203 14.872C262.587 14.872 262.931 14.784 263.235 14.608C263.539 14.424 263.779 14.168 263.955 13.84C264.131 13.512 264.219 13.128 264.219 12.688C264.219 12.256 264.131 11.876 263.955 11.548C263.779 11.212 263.539 10.956 263.235 10.78C262.931 10.596 262.587 10.504 262.203 10.504ZM273.156 13.744C273.156 14.16 273.056 14.548 272.856 14.908C272.656 15.26 272.352 15.544 271.944 15.76C271.536 15.976 271.036 16.084 270.444 16.084C269.868 16.084 269.352 15.984 268.896 15.784C268.44 15.576 268.076 15.288 267.804 14.92C267.532 14.552 267.376 14.128 267.336 13.648H268.8C268.84 14.016 268.996 14.332 269.268 14.596C269.548 14.86 269.92 14.992 270.384 14.992C270.8 14.992 271.12 14.88 271.344 14.656C271.576 14.432 271.692 14.144 271.692 13.792C271.692 13.488 271.608 13.24 271.44 13.048C271.272 12.848 271.064 12.692 270.816 12.58C270.568 12.468 270.228 12.34 269.796 12.196C269.268 12.028 268.836 11.86 268.5 11.692C268.172 11.524 267.892 11.28 267.66 10.96C267.428 10.64 267.312 10.22 267.312 9.7C267.312 9.244 267.424 8.844 267.648 8.5C267.872 8.156 268.192 7.892 268.608 7.708C269.024 7.516 269.504 7.42 270.048 7.42C270.912 7.42 271.596 7.628 272.1 8.044C272.612 8.46 272.904 9.004 272.976 9.676H271.5C271.444 9.356 271.292 9.084 271.044 8.86C270.804 8.628 270.472 8.512 270.048 8.512C269.664 8.512 269.356 8.612 269.124 8.812C268.892 9.004 268.776 9.284 268.776 9.652C268.776 9.94 268.856 10.18 269.016 10.372C269.176 10.556 269.376 10.704 269.616 10.816C269.864 10.92 270.2 11.044 270.624 11.188C271.16 11.356 271.596 11.528 271.932 11.704C272.276 11.872 272.564 12.12 272.796 12.448C273.036 12.776 273.156 13.208 273.156 13.744ZM277.826 9.304C278.682 9.304 279.39 9.532 279.95 9.988C280.51 10.436 280.858 11.048 280.994 11.824H279.542C279.462 11.408 279.266 11.084 278.954 10.852C278.65 10.612 278.266 10.492 277.802 10.492C277.274 10.492 276.834 10.68 276.482 11.056C276.13 11.424 275.954 11.968 275.954 12.688C275.954 13.408 276.13 13.956 276.482 14.332C276.834 14.708 277.274 14.896 277.802 14.896C278.266 14.896 278.65 14.776 278.954 14.536C279.266 14.296 279.462 13.968 279.542 13.552H280.994C280.858 14.328 280.51 14.944 279.95 15.4C279.39 15.856 278.682 16.084 277.826 16.084C277.186 16.084 276.618 15.948 276.122 15.676C275.634 15.404 275.25 15.012 274.97 14.5C274.69 13.988 274.55 13.384 274.55 12.688C274.55 12 274.69 11.4 274.97 10.888C275.25 10.376 275.634 9.984 276.122 9.712C276.618 9.44 277.186 9.304 277.826 9.304ZM284.044 10.684C284.267 10.252 284.587 9.912 285.003 9.664C285.42 9.408 285.9 9.28 286.444 9.28V10.768H286.035C285.436 10.768 284.952 10.916 284.584 11.212C284.224 11.5 284.044 11.98 284.044 12.652V16H282.675V9.388H284.044V10.684ZM287.636 7.468C287.636 7.236 287.716 7.044 287.876 6.892C288.036 6.74 288.248 6.664 288.512 6.664C288.776 6.664 288.988 6.74 289.148 6.892C289.316 7.044 289.4 7.236 289.4 7.468C289.4 7.7 289.316 7.888 289.148 8.032C288.988 8.176 288.776 8.248 288.512 8.248C288.248 8.248 288.036 8.176 287.876 8.032C287.716 7.888 287.636 7.7 287.636 7.468ZM289.196 9.388V16H287.828V9.388H289.196ZM295.004 9.304C295.58 9.304 296.092 9.44 296.54 9.712C296.996 9.984 297.352 10.376 297.608 10.888C297.864 11.4 297.992 12 297.992 12.688C297.992 13.384 297.864 13.988 297.608 14.5C297.352 15.012 296.996 15.404 296.54 15.676C296.092 15.948 295.58 16.084 295.004 16.084C294.404 16.084 293.892 15.936 293.468 15.64C293.044 15.344 292.748 14.952 292.58 14.464V19.144H291.212V9.388H292.58V10.924C292.748 10.436 293.044 10.044 293.468 9.748C293.892 9.452 294.404 9.304 295.004 9.304ZM294.584 10.504C294.2 10.504 293.856 10.596 293.552 10.78C293.248 10.956 293.008 11.212 292.832 11.548C292.656 11.876 292.568 12.256 292.568 12.688C292.568 13.128 292.656 13.512 292.832 13.84C293.008 14.168 293.248 14.424 293.552 14.608C293.856 14.784 294.2 14.872 294.584 14.872C295.192 14.872 295.68 14.68 296.048 14.296C296.416 13.904 296.6 13.368 296.6 12.688C296.6 12.016 296.416 11.484 296.048 11.092C295.68 10.7 295.192 10.504 294.584 10.504ZM302.994 14.812V16H302.154C301.45 16 300.914 15.832 300.546 15.496C300.186 15.152 300.006 14.584 300.006 13.792V10.552H299.058V9.388H300.006V7.744H301.386V9.388H302.982V10.552H301.386V13.816C301.386 14.192 301.454 14.452 301.59 14.596C301.734 14.74 301.982 14.812 302.334 14.812H302.994Z" fill="#6070FF"/>
</g>
<defs>
<clipPath id="clip0_34_966">
<rect width="316" height="24" fill="white"/>
</clipPath>
</defs>
</svg>
