<svg width="496" height="98" viewBox="0 0 496 98" fill="none" xmlns="http://www.w3.org/2000/svg">
<g clip-path="url(#clip0_34_954)">
<path d="M34.16 11.92V40H27.32V22.44L21.24 40H15.32L9.2 22.4V40H2.36V11.92H10.72L18.36 31.48L25.84 11.92H34.16ZM61.0834 17.68V40H54.2034V35.96C53.5634 37.2667 52.6034 38.3067 51.3234 39.08C50.0701 39.8533 48.6034 40.24 46.9234 40.24C44.3634 40.24 42.3234 39.3867 40.8034 37.68C39.3101 35.9733 38.5634 33.6267 38.5634 30.64V17.68H45.3634V29.8C45.3634 31.32 45.7501 32.5067 46.5234 33.36C47.3234 34.1867 48.3901 34.6 49.7234 34.6C51.1101 34.6 52.2034 34.16 53.0034 33.28C53.8034 32.4 54.2034 31.1467 54.2034 29.52V17.68H61.0834ZM72.6375 10.4V40H65.7975V10.4H72.6375ZM90 34.12V40H86.92C84.3067 40 82.2667 39.36 80.8 38.08C79.36 36.7733 78.64 34.6267 78.64 31.64V23.44H75.64V17.68H78.64V12.2H85.48V17.68H89.96V23.44H85.48V31.76C85.48 32.64 85.6533 33.2533 86 33.6C86.3733 33.9467 86.9867 34.12 87.84 34.12H90ZM93.2044 11.4C93.2044 10.36 93.5777 9.50667 94.3244 8.84C95.071 8.14666 96.0577 7.8 97.2844 7.8C98.511 7.8 99.4977 8.14666 100.244 8.84C100.991 9.50667 101.364 10.36 101.364 11.4C101.364 12.4133 100.991 13.2667 100.244 13.96C99.4977 14.6267 98.511 14.96 97.2844 14.96C96.0577 14.96 95.071 14.6267 94.3244 13.96C93.5777 13.2667 93.2044 12.4133 93.2044 11.4ZM100.684 17.68V40H93.8444V17.68H100.684ZM120.927 23.12V28.8H103.287V23.12H120.927ZM133.966 30.08V40H127.126V11.72H138.206C141.566 11.72 144.126 12.56 145.886 14.24C147.646 15.8933 148.526 18.1333 148.526 20.96C148.526 22.72 148.126 24.2933 147.326 25.68C146.552 27.04 145.392 28.12 143.846 28.92C142.299 29.6933 140.419 30.08 138.206 30.08H133.966ZM137.446 24.6C140.192 24.6 141.566 23.3867 141.566 20.96C141.566 18.48 140.192 17.24 137.446 17.24H133.966V24.6H137.446ZM162.331 17.4C164.545 17.4 166.518 17.8667 168.251 18.8C170.011 19.7067 171.385 21.0267 172.371 22.76C173.385 24.4933 173.891 26.52 173.891 28.84C173.891 31.16 173.385 33.1867 172.371 34.92C171.385 36.6533 170.011 37.9867 168.251 38.92C166.518 39.8267 164.545 40.28 162.331 40.28C160.118 40.28 158.131 39.8267 156.371 38.92C154.611 37.9867 153.225 36.6533 152.211 34.92C151.225 33.1867 150.731 31.16 150.731 28.84C150.731 26.52 151.225 24.4933 152.211 22.76C153.225 21.0267 154.611 19.7067 156.371 18.8C158.131 17.8667 160.118 17.4 162.331 17.4ZM162.331 23.32C161.025 23.32 159.918 23.8 159.011 24.76C158.131 25.6933 157.691 27.0533 157.691 28.84C157.691 30.6267 158.131 31.9867 159.011 32.92C159.918 33.8533 161.025 34.32 162.331 34.32C163.638 34.32 164.731 33.8533 165.611 32.92C166.491 31.9867 166.931 30.6267 166.931 28.84C166.931 27.0533 166.491 25.6933 165.611 24.76C164.731 23.8 163.638 23.32 162.331 23.32ZM185.558 17.4C188.385 17.4 190.638 18.1067 192.318 19.52C194.025 20.9333 195.091 22.8 195.518 25.12H189.118C188.931 24.2133 188.505 23.5067 187.838 23C187.198 22.4667 186.385 22.2 185.398 22.2C184.625 22.2 184.038 22.3733 183.638 22.72C183.238 23.04 183.038 23.5067 183.038 24.12C183.038 24.8133 183.398 25.3333 184.118 25.68C184.865 26.0267 186.025 26.3733 187.598 26.72C189.305 27.12 190.705 27.5333 191.798 27.96C192.891 28.36 193.838 29.0267 194.638 29.96C195.438 30.8933 195.838 32.1467 195.838 33.72C195.838 35 195.491 36.1333 194.798 37.12C194.105 38.1067 193.105 38.88 191.798 39.44C190.491 40 188.945 40.28 187.158 40.28C184.145 40.28 181.731 39.6133 179.918 38.28C178.105 36.9467 176.998 35.04 176.598 32.56H183.198C183.305 33.52 183.705 34.2533 184.398 34.76C185.118 35.2667 186.038 35.52 187.158 35.52C187.931 35.52 188.518 35.3467 188.918 35C189.318 34.6267 189.518 34.1467 189.518 33.56C189.518 32.7867 189.145 32.24 188.398 31.92C187.678 31.5733 186.491 31.2133 184.838 30.84C183.185 30.4933 181.825 30.12 180.758 29.72C179.691 29.32 178.771 28.68 177.998 27.8C177.225 26.8933 176.838 25.6667 176.838 24.12C176.838 22.12 177.598 20.5067 179.118 19.28C180.638 18.0267 182.785 17.4 185.558 17.4ZM212.266 34.12V40H209.186C206.572 40 204.532 39.36 203.066 38.08C201.626 36.7733 200.906 34.6267 200.906 31.64V23.44H197.906V17.68H200.906V12.2H207.746V17.68H212.226V23.44H207.746V31.76C207.746 32.64 207.919 33.2533 208.266 33.6C208.639 33.9467 209.252 34.12 210.106 34.12H212.266ZM244.438 32.04C244.438 33.5333 244.051 34.9067 243.278 36.16C242.531 37.4133 241.411 38.4133 239.918 39.16C238.451 39.9067 236.664 40.28 234.558 40.28C231.384 40.28 228.771 39.5067 226.718 37.96C224.664 36.4133 223.544 34.2533 223.358 31.48H230.638C230.744 32.5467 231.118 33.3867 231.758 34C232.424 34.6133 233.264 34.92 234.278 34.92C235.158 34.92 235.851 34.68 236.358 34.2C236.864 33.72 237.118 33.08 237.118 32.28C237.118 31.56 236.878 30.96 236.398 30.48C235.944 30 235.371 29.6133 234.678 29.32C233.984 29 233.024 28.6267 231.798 28.2C230.011 27.5867 228.544 27 227.398 26.44C226.278 25.8533 225.304 25 224.478 23.88C223.678 22.7333 223.278 21.2533 223.278 19.44C223.278 17.76 223.704 16.3067 224.558 15.08C225.411 13.8533 226.584 12.92 228.078 12.28C229.598 11.6133 231.331 11.28 233.278 11.28C236.424 11.28 238.918 12.0267 240.758 13.52C242.624 15.0133 243.678 17.0667 243.918 19.68H236.518C236.384 18.7467 236.038 18.0133 235.478 17.48C234.944 16.92 234.211 16.64 233.278 16.64C232.478 16.64 231.824 16.8533 231.318 17.28C230.838 17.7067 230.598 18.3333 230.598 19.16C230.598 19.8267 230.811 20.4 231.238 20.88C231.691 21.3333 232.251 21.7067 232.918 22C233.584 22.2933 234.544 22.6667 235.798 23.12C237.611 23.7333 239.091 24.3467 240.238 24.96C241.384 25.5467 242.371 26.4133 243.198 27.56C244.024 28.7067 244.438 30.2 244.438 32.04ZM260.859 34.12V40H257.779C255.166 40 253.126 39.36 251.659 38.08C250.219 36.7733 249.499 34.6267 249.499 31.64V23.44H246.499V17.68H249.499V12.2H256.339V17.68H260.819V23.44H256.339V31.76C256.339 32.64 256.513 33.2533 256.859 33.6C257.233 33.9467 257.846 34.12 258.699 34.12H260.859ZM275.144 17.4C277.357 17.4 279.33 17.8667 281.064 18.8C282.824 19.7067 284.197 21.0267 285.184 22.76C286.197 24.4933 286.704 26.52 286.704 28.84C286.704 31.16 286.197 33.1867 285.184 34.92C284.197 36.6533 282.824 37.9867 281.064 38.92C279.33 39.8267 277.357 40.28 275.144 40.28C272.93 40.28 270.944 39.8267 269.184 38.92C267.424 37.9867 266.037 36.6533 265.024 34.92C264.037 33.1867 263.544 31.16 263.544 28.84C263.544 26.52 264.037 24.4933 265.024 22.76C266.037 21.0267 267.424 19.7067 269.184 18.8C270.944 17.8667 272.93 17.4 275.144 17.4ZM275.144 23.32C273.837 23.32 272.73 23.8 271.824 24.76C270.944 25.6933 270.504 27.0533 270.504 28.84C270.504 30.6267 270.944 31.9867 271.824 32.92C272.73 33.8533 273.837 34.32 275.144 34.32C276.45 34.32 277.544 33.8533 278.424 32.92C279.304 31.9867 279.744 30.6267 279.744 28.84C279.744 27.0533 279.304 25.6933 278.424 24.76C277.544 23.8 276.45 23.32 275.144 23.32ZM297.091 21.88C297.944 20.52 299.037 19.44 300.371 18.64C301.731 17.84 303.197 17.44 304.771 17.44V24.76H302.811C300.997 24.76 299.584 25.1467 298.571 25.92C297.584 26.6933 297.091 28 297.091 29.84V40H290.251V17.68H297.091V21.88ZM306.993 11.4C306.993 10.36 307.367 9.50667 308.113 8.84C308.86 8.14666 309.847 7.8 311.073 7.8C312.3 7.8 313.287 8.14666 314.033 8.84C314.78 9.50667 315.153 10.36 315.153 11.4C315.153 12.4133 314.78 13.2667 314.033 13.96C313.287 14.6267 312.3 14.96 311.073 14.96C309.847 14.96 308.86 14.6267 308.113 13.96C307.367 13.2667 306.993 12.4133 306.993 11.4ZM314.473 17.68V40H307.633V17.68H314.473ZM340.396 28.24C340.396 28.8 340.329 29.4133 340.196 30.08H324.716C324.796 31.76 325.223 32.9733 325.996 33.72C326.769 34.44 327.756 34.8 328.956 34.8C329.969 34.8 330.809 34.5467 331.476 34.04C332.143 33.5333 332.583 32.88 332.796 32.08H340.036C339.743 33.6533 339.103 35.0667 338.116 36.32C337.129 37.5467 335.876 38.52 334.356 39.24C332.836 39.9333 331.143 40.28 329.276 40.28C327.089 40.28 325.143 39.8267 323.436 38.92C321.756 37.9867 320.436 36.6533 319.476 34.92C318.516 33.1867 318.036 31.16 318.036 28.84C318.036 26.4933 318.503 24.4667 319.436 22.76C320.396 21.0267 321.729 19.7067 323.436 18.8C325.143 17.8667 327.089 17.4 329.276 17.4C331.489 17.4 333.436 17.8533 335.116 18.76C336.796 19.6667 338.089 20.9467 338.996 22.6C339.929 24.2267 340.396 26.1067 340.396 28.24ZM333.476 27.2C333.503 25.7333 333.103 24.64 332.276 23.92C331.476 23.1733 330.476 22.8 329.276 22.8C328.023 22.8 326.983 23.1733 326.156 23.92C325.329 24.6667 324.863 25.76 324.756 27.2H333.476ZM352.082 17.4C354.908 17.4 357.162 18.1067 358.842 19.52C360.548 20.9333 361.615 22.8 362.042 25.12H355.642C355.455 24.2133 355.028 23.5067 354.362 23C353.722 22.4667 352.908 22.2 351.922 22.2C351.148 22.2 350.562 22.3733 350.162 22.72C349.762 23.04 349.562 23.5067 349.562 24.12C349.562 24.8133 349.922 25.3333 350.642 25.68C351.388 26.0267 352.548 26.3733 354.122 26.72C355.828 27.12 357.228 27.5333 358.322 27.96C359.415 28.36 360.362 29.0267 361.162 29.96C361.962 30.8933 362.362 32.1467 362.362 33.72C362.362 35 362.015 36.1333 361.322 37.12C360.628 38.1067 359.628 38.88 358.322 39.44C357.015 40 355.468 40.28 353.682 40.28C350.668 40.28 348.255 39.6133 346.442 38.28C344.628 36.9467 343.522 35.04 343.122 32.56H349.722C349.828 33.52 350.228 34.2533 350.922 34.76C351.642 35.2667 352.562 35.52 353.682 35.52C354.455 35.52 355.042 35.3467 355.442 35C355.842 34.6267 356.042 34.1467 356.042 33.56C356.042 32.7867 355.668 32.24 354.922 31.92C354.202 31.5733 353.015 31.2133 351.362 30.84C349.708 30.4933 348.348 30.12 347.282 29.72C346.215 29.32 345.295 28.68 344.522 27.8C343.748 26.8933 343.362 25.6667 343.362 24.12C343.362 22.12 344.122 20.5067 345.642 19.28C347.162 18.0267 349.308 17.4 352.082 17.4Z" fill="#091E42"/>
<g clip-path="url(#clip1_34_954)">
<path d="M8.748 71.292V72.948H3.294V76.89H7.794V78.474H3.294V84H1.242V71.292H8.748ZM18.154 81.246H12.79L11.818 84H9.62198L14.302 71.49H16.66L21.322 84H19.126L18.154 81.246ZM17.578 79.662L15.472 73.722L13.366 79.662H17.578ZM28.5155 71.166C30.0755 71.166 31.3715 71.562 32.4035 72.354C33.4355 73.146 34.1315 74.22 34.4915 75.576H32.3135C32.0135 74.808 31.5335 74.202 30.8735 73.758C30.2255 73.302 29.4275 73.074 28.4795 73.074C27.7235 73.074 27.0455 73.26 26.4455 73.632C25.8575 74.004 25.3895 74.538 25.0415 75.234C24.7055 75.918 24.5375 76.722 24.5375 77.646C24.5375 78.558 24.7055 79.362 25.0415 80.058C25.3895 80.742 25.8575 81.27 26.4455 81.642C27.0455 82.014 27.7235 82.2 28.4795 82.2C29.4275 82.2 30.2255 81.978 30.8735 81.534C31.5335 81.078 32.0135 80.472 32.3135 79.716H34.4915C34.1315 81.072 33.4355 82.146 32.4035 82.938C31.3715 83.718 30.0755 84.108 28.5155 84.108C27.3155 84.108 26.2535 83.838 25.3295 83.298C24.4055 82.746 23.6915 81.984 23.1875 81.012C22.6835 80.028 22.4315 78.906 22.4315 77.646C22.4315 76.386 22.6835 75.27 23.1875 74.298C23.6915 73.314 24.4055 72.546 25.3295 71.994C26.2535 71.442 27.3155 71.166 28.5155 71.166ZM38.5909 72.948V76.8H43.2709V78.384H38.5909V82.326H43.8109V84H36.5389V71.292H43.8109V72.948H38.5909ZM52.4265 77.448C53.1945 77.604 53.8125 77.97 54.2805 78.546C54.7605 79.122 55.0005 79.794 55.0005 80.562C55.0005 81.618 54.6465 82.458 53.9385 83.082C53.2305 83.694 52.2045 84 50.8605 84H45.8025V71.292H50.7705C52.0425 71.292 53.0145 71.58 53.6865 72.156C54.3705 72.72 54.7125 73.5 54.7125 74.496C54.7125 75.3 54.5025 75.954 54.0825 76.458C53.6625 76.95 53.1105 77.28 52.4265 77.448ZM47.8545 76.764H50.3925C51.1125 76.764 51.6585 76.596 52.0305 76.26C52.4145 75.924 52.6065 75.456 52.6065 74.856C52.6065 74.268 52.4145 73.806 52.0305 73.47C51.6585 73.134 51.0885 72.966 50.3205 72.966H47.8545V76.764ZM50.4465 82.308C51.2265 82.308 51.8265 82.134 52.2465 81.786C52.6785 81.426 52.8945 80.928 52.8945 80.292C52.8945 79.656 52.6785 79.158 52.2465 78.798C51.8145 78.438 51.2085 78.258 50.4285 78.258H47.8545V82.308H50.4465ZM62.8155 71.13C63.9915 71.13 65.0535 71.406 66.0015 71.958C66.9615 72.51 67.7115 73.284 68.2515 74.28C68.8035 75.264 69.0795 76.38 69.0795 77.628C69.0795 78.876 68.8035 79.998 68.2515 80.994C67.7115 81.978 66.9615 82.752 66.0015 83.316C65.0535 83.868 63.9915 84.144 62.8155 84.144C61.6275 84.144 60.5535 83.868 59.5935 83.316C58.6455 82.752 57.8955 81.978 57.3435 80.994C56.7915 79.998 56.5155 78.876 56.5155 77.628C56.5155 76.38 56.7915 75.264 57.3435 74.28C57.8955 73.284 58.6455 72.51 59.5935 71.958C60.5535 71.406 61.6275 71.13 62.8155 71.13ZM62.8155 73.038C61.9995 73.038 61.2735 73.224 60.6375 73.596C60.0015 73.968 59.5035 74.502 59.1435 75.198C58.7955 75.894 58.6215 76.704 58.6215 77.628C58.6215 78.552 58.7955 79.362 59.1435 80.058C59.5035 80.754 60.0015 81.288 60.6375 81.66C61.2735 82.032 61.9995 82.218 62.8155 82.218C63.6195 82.218 64.3335 82.032 64.9575 81.66C65.5935 81.288 66.0855 80.754 66.4335 80.058C66.7935 79.362 66.9735 78.552 66.9735 77.628C66.9735 76.704 66.7935 75.894 66.4335 75.198C66.0855 74.502 65.5935 73.968 64.9575 73.596C64.3335 73.224 63.6195 73.038 62.8155 73.038ZM77.0362 71.13C78.2122 71.13 79.2742 71.406 80.2222 71.958C81.1822 72.51 81.9322 73.284 82.4722 74.28C83.0242 75.264 83.3002 76.38 83.3002 77.628C83.3002 78.876 83.0242 79.998 82.4722 80.994C81.9322 81.978 81.1822 82.752 80.2222 83.316C79.2742 83.868 78.2122 84.144 77.0362 84.144C75.8482 84.144 74.7742 83.868 73.8142 83.316C72.8662 82.752 72.1162 81.978 71.5642 80.994C71.0122 79.998 70.7362 78.876 70.7362 77.628C70.7362 76.38 71.0122 75.264 71.5642 74.28C72.1162 73.284 72.8662 72.51 73.8142 71.958C74.7742 71.406 75.8482 71.13 77.0362 71.13ZM77.0362 73.038C76.2202 73.038 75.4942 73.224 74.8582 73.596C74.2222 73.968 73.7242 74.502 73.3642 75.198C73.0162 75.894 72.8422 76.704 72.8422 77.628C72.8422 78.552 73.0162 79.362 73.3642 80.058C73.7242 80.754 74.2222 81.288 74.8582 81.66C75.4942 82.032 76.2202 82.218 77.0362 82.218C77.8402 82.218 78.5542 82.032 79.1782 81.66C79.8142 81.288 80.3062 80.754 80.6542 80.058C81.0142 79.362 81.1942 78.552 81.1942 77.628C81.1942 76.704 81.0142 75.894 80.6542 75.198C80.3062 74.502 79.8142 73.968 79.1782 73.596C78.5542 73.224 77.8402 73.038 77.0362 73.038ZM89.3489 77.574L94.9469 84H92.4449L87.4229 78.114V84H85.3709V71.292H87.4229V77.106L92.4629 71.292H94.9469L89.3489 77.574Z" fill="#344563"/>
<circle cx="112" cy="78" r="4" fill="#C1C7D0"/>
<path d="M136.496 71.31V72.642H130.952V77.034H135.65V78.312H130.952V84H129.314V71.31H136.496ZM147.221 74.118V84H145.583V81.678C145.331 82.482 144.881 83.1 144.233 83.532C143.597 83.952 142.853 84.162 142.001 84.162C140.861 84.162 139.937 83.796 139.229 83.064C138.521 82.32 138.167 81.258 138.167 79.878V74.118H139.805V79.716C139.805 80.7 140.057 81.462 140.561 82.002C141.065 82.53 141.749 82.794 142.613 82.794C143.513 82.794 144.233 82.506 144.773 81.93C145.313 81.342 145.583 80.49 145.583 79.374V74.118H147.221ZM151.483 70.68V84H149.845V70.68H151.483ZM155.755 70.68V84H154.117V70.68H155.755ZM170.863 80.706C170.863 81.306 170.719 81.864 170.431 82.38C170.143 82.896 169.705 83.316 169.117 83.64C168.529 83.964 167.803 84.126 166.939 84.126C166.099 84.126 165.349 83.976 164.689 83.676C164.041 83.364 163.519 82.944 163.123 82.416C162.739 81.876 162.517 81.264 162.457 80.58H164.203C164.239 80.94 164.359 81.294 164.563 81.642C164.779 81.978 165.079 82.26 165.463 82.488C165.859 82.704 166.333 82.812 166.885 82.812C167.605 82.812 168.157 82.62 168.541 82.236C168.925 81.852 169.117 81.36 169.117 80.76C169.117 80.244 168.979 79.824 168.703 79.5C168.439 79.176 168.109 78.924 167.713 78.744C167.317 78.552 166.777 78.348 166.093 78.132C165.289 77.868 164.641 77.622 164.149 77.394C163.669 77.154 163.255 76.8 162.907 76.332C162.571 75.864 162.403 75.246 162.403 74.478C162.403 73.818 162.559 73.236 162.871 72.732C163.195 72.228 163.651 71.838 164.239 71.562C164.839 71.286 165.541 71.148 166.345 71.148C167.593 71.148 168.583 71.454 169.315 72.066C170.047 72.666 170.473 73.434 170.593 74.37H168.829C168.733 73.866 168.475 73.422 168.055 73.038C167.635 72.654 167.065 72.462 166.345 72.462C165.685 72.462 165.157 72.636 164.761 72.984C164.365 73.32 164.167 73.8 164.167 74.424C164.167 74.916 164.293 75.318 164.545 75.63C164.809 75.93 165.133 76.17 165.517 76.35C165.901 76.518 166.429 76.71 167.101 76.926C167.917 77.19 168.571 77.442 169.063 77.682C169.567 77.922 169.993 78.288 170.341 78.78C170.689 79.26 170.863 79.902 170.863 80.706ZM177.782 82.56V84H176.558C175.55 84 174.794 83.76 174.29 83.28C173.798 82.8 173.552 81.996 173.552 80.868V75.54H172.076V74.118H173.552V71.652H175.208V74.118H177.764V75.54H175.208V80.904C175.208 81.54 175.322 81.978 175.55 82.218C175.79 82.446 176.198 82.56 176.774 82.56H177.782ZM183.831 73.992C184.791 73.992 185.601 74.232 186.261 74.712C186.933 75.192 187.401 75.834 187.665 76.638V74.118H189.303V84H187.665V81.48C187.401 82.284 186.933 82.926 186.261 83.406C185.601 83.886 184.791 84.126 183.831 84.126C182.955 84.126 182.175 83.922 181.491 83.514C180.807 83.106 180.267 82.524 179.871 81.768C179.487 81 179.295 80.1 179.295 79.068C179.295 78.036 179.487 77.136 179.871 76.368C180.267 75.6 180.807 75.012 181.491 74.604C182.175 74.196 182.955 73.992 183.831 73.992ZM184.299 75.45C183.291 75.45 182.481 75.774 181.869 76.422C181.269 77.058 180.969 77.94 180.969 79.068C180.969 80.196 181.269 81.084 181.869 81.732C182.481 82.368 183.291 82.686 184.299 82.686C184.947 82.686 185.523 82.536 186.027 82.236C186.543 81.936 186.945 81.516 187.233 80.976C187.521 80.424 187.665 79.788 187.665 79.068C187.665 78.348 187.521 77.712 187.233 77.16C186.945 76.608 186.543 76.188 186.027 75.9C185.523 75.6 184.947 75.45 184.299 75.45ZM196.284 73.992C197.544 73.992 198.588 74.328 199.416 75C200.244 75.672 200.754 76.572 200.946 77.7H199.218C199.098 76.992 198.768 76.44 198.228 76.044C197.7 75.636 197.04 75.432 196.248 75.432C195.672 75.432 195.144 75.564 194.664 75.828C194.196 76.092 193.818 76.5 193.53 77.052C193.242 77.592 193.098 78.264 193.098 79.068C193.098 79.872 193.242 80.55 193.53 81.102C193.818 81.642 194.196 82.044 194.664 82.308C195.144 82.572 195.672 82.704 196.248 82.704C197.04 82.704 197.7 82.5 198.228 82.092C198.768 81.684 199.098 81.126 199.218 80.418H200.946C200.754 81.558 200.244 82.464 199.416 83.136C198.588 83.796 197.544 84.126 196.284 84.126C195.336 84.126 194.496 83.922 193.764 83.514C193.032 83.106 192.456 82.524 192.036 81.768C191.628 81 191.424 80.1 191.424 79.068C191.424 78.036 191.628 77.136 192.036 76.368C192.456 75.6 193.032 75.012 193.764 74.604C194.496 74.196 195.336 73.992 196.284 73.992ZM208.507 84L204.727 79.554V84H203.089V70.68H204.727V78.42L208.453 74.118H210.451L206.023 79.032L210.559 84H208.507ZM227.141 77.646C227.141 78.93 226.883 80.052 226.367 81.012C225.851 81.96 225.089 82.698 224.081 83.226C223.085 83.742 221.885 84 220.481 84H216.449V71.31H220.481C221.885 71.31 223.085 71.568 224.081 72.084C225.089 72.588 225.851 73.32 226.367 74.28C226.883 75.228 227.141 76.35 227.141 77.646ZM220.355 82.524C222.011 82.524 223.277 82.098 224.153 81.246C225.029 80.394 225.467 79.194 225.467 77.646C225.467 76.098 225.029 74.898 224.153 74.046C223.289 73.182 222.023 72.75 220.355 72.75H218.087V82.524H220.355ZM238.441 78.51C238.441 78.858 238.417 79.158 238.369 79.41H230.467C230.503 80.538 230.821 81.384 231.421 81.948C232.033 82.512 232.777 82.794 233.653 82.794C234.445 82.794 235.105 82.596 235.633 82.2C236.173 81.792 236.503 81.252 236.623 80.58H238.369C238.249 81.264 237.979 81.876 237.559 82.416C237.151 82.956 236.617 83.376 235.957 83.676C235.297 83.976 234.553 84.126 233.725 84.126C232.777 84.126 231.937 83.922 231.205 83.514C230.473 83.106 229.897 82.524 229.477 81.768C229.069 81 228.865 80.1 228.865 79.068C228.865 78.036 229.069 77.136 229.477 76.368C229.897 75.6 230.473 75.012 231.205 74.604C231.937 74.196 232.777 73.992 233.725 73.992C234.685 73.992 235.519 74.196 236.227 74.604C236.947 75.012 237.493 75.558 237.865 76.242C238.249 76.926 238.441 77.682 238.441 78.51ZM236.785 78.618C236.821 77.886 236.701 77.274 236.425 76.782C236.149 76.29 235.771 75.924 235.291 75.684C234.811 75.444 234.289 75.324 233.725 75.324C232.825 75.324 232.069 75.606 231.457 76.17C230.845 76.722 230.515 77.538 230.467 78.618H236.785ZM244.418 82.254L247.478 74.118H249.242L245.372 84H243.428L239.558 74.118H241.322L244.418 82.254Z" fill="#6B778C"/>
<circle cx="266" cy="78" r="4" fill="#C1C7D0"/>
<path d="M282.756 82.74C284.796 81.372 286.428 80.016 287.652 78.672C288.876 77.316 289.488 76.056 289.488 74.892C289.488 74.172 289.302 73.596 288.93 73.164C288.57 72.72 287.982 72.498 287.166 72.498C286.326 72.498 285.69 72.768 285.258 73.308C284.826 73.836 284.586 74.568 284.538 75.504H282.918C283.002 74.088 283.44 73.002 284.232 72.246C285.024 71.478 286.044 71.094 287.292 71.094C288.48 71.094 289.422 71.412 290.118 72.048C290.814 72.684 291.162 73.584 291.162 74.748C291.162 75.708 290.85 76.686 290.226 77.682C289.614 78.666 288.84 79.584 287.904 80.436C286.98 81.276 286.026 81.99 285.042 82.578H291.486V83.928H282.756V82.74ZM293.239 77.574C293.239 79.614 293.575 81.204 294.247 82.344C294.919 83.484 296.083 84.054 297.739 84.054C299.395 84.054 300.559 83.484 301.231 82.344C301.915 81.204 302.257 79.614 302.257 77.574C302.257 75.558 301.915 73.98 301.231 72.84C300.559 71.7 299.395 71.13 297.739 71.13C296.083 71.13 294.919 71.7 294.247 72.84C293.575 73.968 293.239 75.546 293.239 77.574ZM300.637 77.574C300.637 78.618 300.559 79.494 300.403 80.202C300.259 80.898 299.977 81.456 299.557 81.876C299.137 82.296 298.531 82.506 297.739 82.506C296.959 82.506 296.359 82.296 295.939 81.876C295.519 81.456 295.231 80.898 295.075 80.202C294.931 79.494 294.859 78.618 294.859 77.574C294.859 76.542 294.931 75.678 295.075 74.982C295.231 74.286 295.519 73.734 295.939 73.326C296.359 72.906 296.959 72.696 297.739 72.696C298.531 72.696 299.137 72.906 299.557 73.326C299.977 73.734 300.259 74.286 300.403 74.982C300.559 75.678 300.637 76.542 300.637 77.574ZM303.504 72.84V71.31H307.14V84H305.412V72.84H303.504ZM318.014 72.606H311.498V76.854C311.798 76.446 312.23 76.122 312.794 75.882C313.358 75.642 313.976 75.522 314.648 75.522C315.548 75.522 316.292 75.714 316.88 76.098C317.48 76.47 317.918 76.968 318.194 77.592C318.482 78.204 318.626 78.888 318.626 79.644C318.626 80.952 318.26 82.02 317.527 82.848C316.796 83.676 315.722 84.09 314.306 84.09C313.034 84.09 311.996 83.748 311.192 83.064C310.388 82.368 309.938 81.438 309.842 80.274H311.462C311.594 81.018 311.9 81.6 312.38 82.02C312.872 82.428 313.49 82.632 314.234 82.632C315.158 82.632 315.854 82.356 316.322 81.804C316.79 81.252 317.024 80.526 317.024 79.626C317.024 78.75 316.784 78.066 316.304 77.574C315.824 77.082 315.146 76.836 314.27 76.836C313.646 76.836 313.1 76.974 312.632 77.25C312.164 77.514 311.81 77.874 311.57 78.33H309.986V71.148H318.014V72.606Z" fill="#6B778C"/>
</g>
</g>
<defs>
<clipPath id="clip0_34_954">
<rect width="496" height="98" fill="white"/>
</clipPath>
<clipPath id="clip1_34_954">
<rect width="320" height="40" fill="white" transform="translate(0 58)"/>
</clipPath>
</defs>
</svg>
