<svg width="496" height="98" viewBox="0 0 496 98" fill="none" xmlns="http://www.w3.org/2000/svg">
<g clip-path="url(#clip0_34_1014)">
<path d="M9 11.72V28.04C9 29.9067 9.41333 31.3333 10.24 32.32C11.0933 33.3067 12.32 33.8 13.92 33.8C15.52 33.8 16.7333 33.3067 17.56 32.32C18.4133 31.3333 18.84 29.9067 18.84 28.04V11.72H25.68V28.04C25.68 30.7067 25.16 32.96 24.12 34.8C23.08 36.6133 21.6533 37.9867 19.84 38.92C18.0533 39.8267 16.0267 40.28 13.76 40.28C11.4933 40.28 9.49333 39.8267 7.76 38.92C6.02667 38.0133 4.66667 36.64 3.68 34.8C2.69333 32.96 2.2 30.7067 2.2 28.04V11.72H9ZM44.1706 17.4C46.0106 17.4 47.6506 17.8667 49.0906 18.8C50.5573 19.7067 51.704 21.0267 52.5306 22.76C53.384 24.4667 53.8106 26.4933 53.8106 28.84C53.8106 31.16 53.384 33.1867 52.5306 34.92C51.704 36.6533 50.5573 37.9867 49.0906 38.92C47.6506 39.8267 46.0106 40.28 44.1706 40.28C42.464 40.28 40.9973 39.8933 39.7706 39.12C38.544 38.3467 37.6506 37.2933 37.0906 35.96V40H30.2506V10.4H37.0906V21.72C37.6506 20.3867 38.544 19.3333 39.7706 18.56C40.9973 17.7867 42.464 17.4 44.1706 17.4ZM41.9706 23.4C40.5306 23.4 39.344 23.8933 38.4106 24.88C37.504 25.84 37.0506 27.16 37.0506 28.84C37.0506 30.4933 37.504 31.8133 38.4106 32.8C39.344 33.7867 40.5306 34.28 41.9706 34.28C43.4373 34.28 44.6106 33.8 45.4906 32.84C46.3973 31.88 46.8506 30.5467 46.8506 28.84C46.8506 27.1333 46.3973 25.8 45.4906 24.84C44.6106 23.88 43.4373 23.4 41.9706 23.4ZM78.56 28.24C78.56 28.8 78.4933 29.4133 78.36 30.08H62.88C62.96 31.76 63.3867 32.9733 64.16 33.72C64.9333 34.44 65.92 34.8 67.12 34.8C68.1333 34.8 68.9733 34.5467 69.64 34.04C70.3067 33.5333 70.7467 32.88 70.96 32.08H78.2C77.9067 33.6533 77.2667 35.0667 76.28 36.32C75.2933 37.5467 74.04 38.52 72.52 39.24C71 39.9333 69.3067 40.28 67.44 40.28C65.2533 40.28 63.3067 39.8267 61.6 38.92C59.92 37.9867 58.6 36.6533 57.64 34.92C56.68 33.1867 56.2 31.16 56.2 28.84C56.2 26.4933 56.6667 24.4667 57.6 22.76C58.56 21.0267 59.8933 19.7067 61.6 18.8C63.3067 17.8667 65.2533 17.4 67.44 17.4C69.6533 17.4 71.6 17.8533 73.28 18.76C74.96 19.6667 76.2533 20.9467 77.16 22.6C78.0933 24.2267 78.56 26.1067 78.56 28.24ZM71.64 27.2C71.6667 25.7333 71.2667 24.64 70.44 23.92C69.64 23.1733 68.64 22.8 67.44 22.8C66.1867 22.8 65.1467 23.1733 64.32 23.92C63.4933 24.6667 63.0267 25.76 62.92 27.2H71.64ZM88.9656 21.88C89.819 20.52 90.9123 19.44 92.2456 18.64C93.6056 17.84 95.0723 17.44 96.6456 17.44V24.76H94.6856C92.8723 24.76 91.459 25.1467 90.4456 25.92C89.459 26.6933 88.9656 28 88.9656 29.84V40H82.1256V17.68H88.9656V21.88ZM132.636 40H125.796L114.356 22.64V40H107.516V11.72H114.356L125.796 29.24V11.72H132.636V40ZM145.84 17.4C147.547 17.4 149.013 17.7867 150.24 18.56C151.467 19.3333 152.373 20.3867 152.96 21.72V17.68H159.76V40H152.96V35.96C152.373 37.2933 151.467 38.3467 150.24 39.12C149.013 39.8933 147.547 40.28 145.84 40.28C144 40.28 142.347 39.8267 140.88 38.92C139.44 37.9867 138.293 36.6533 137.44 34.92C136.613 33.1867 136.2 31.16 136.2 28.84C136.2 26.4933 136.613 24.4667 137.44 22.76C138.293 21.0267 139.44 19.7067 140.88 18.8C142.347 17.8667 144 17.4 145.84 17.4ZM148.04 23.4C146.573 23.4 145.387 23.88 144.48 24.84C143.6 25.8 143.16 27.1333 143.16 28.84C143.16 30.5467 143.6 31.88 144.48 32.84C145.387 33.8 146.573 34.28 148.04 34.28C149.48 34.28 150.653 33.7867 151.56 32.8C152.493 31.8133 152.96 30.4933 152.96 28.84C152.96 27.16 152.493 25.84 151.56 24.88C150.653 23.8933 149.48 23.4 148.04 23.4ZM174.789 33.32L179.629 17.68H186.909L178.989 40H170.509L162.589 17.68H169.869L174.789 33.32ZM189.103 11.4C189.103 10.36 189.476 9.50667 190.223 8.84C190.969 8.14666 191.956 7.8 193.183 7.8C194.409 7.8 195.396 8.14666 196.143 8.84C196.889 9.50667 197.263 10.36 197.263 11.4C197.263 12.4133 196.889 13.2667 196.143 13.96C195.396 14.6267 194.409 14.96 193.183 14.96C191.956 14.96 190.969 14.6267 190.223 13.96C189.476 13.2667 189.103 12.4133 189.103 11.4ZM196.583 17.68V40H189.743V17.68H196.583ZM209.785 17.4C211.492 17.4 212.959 17.7867 214.185 18.56C215.412 19.3333 216.319 20.3867 216.905 21.72V17.68H223.705V39.88C223.705 41.96 223.305 43.8267 222.505 45.48C221.705 47.16 220.479 48.4933 218.825 49.48C217.172 50.4667 215.119 50.96 212.665 50.96C209.305 50.96 206.612 50.16 204.585 48.56C202.585 46.9867 201.385 44.84 200.985 42.12H207.745C207.959 43.0267 208.439 43.7333 209.185 44.24C209.959 44.7467 210.959 45 212.185 45C213.599 45 214.732 44.5867 215.585 43.76C216.465 42.96 216.905 41.6667 216.905 39.88V35.96C216.319 37.2933 215.412 38.3467 214.185 39.12C212.959 39.8933 211.492 40.28 209.785 40.28C207.945 40.28 206.292 39.8267 204.825 38.92C203.385 37.9867 202.239 36.6533 201.385 34.92C200.559 33.1867 200.145 31.16 200.145 28.84C200.145 26.4933 200.559 24.4667 201.385 22.76C202.239 21.0267 203.385 19.7067 204.825 18.8C206.292 17.8667 207.945 17.4 209.785 17.4ZM211.985 23.4C210.519 23.4 209.332 23.88 208.425 24.84C207.545 25.8 207.105 27.1333 207.105 28.84C207.105 30.5467 207.545 31.88 208.425 32.84C209.332 33.8 210.519 34.28 211.985 34.28C213.425 34.28 214.599 33.7867 215.505 32.8C216.439 31.8133 216.905 30.4933 216.905 28.84C216.905 27.16 216.439 25.84 215.505 24.88C214.599 23.8933 213.425 23.4 211.985 23.4ZM236.895 17.4C238.601 17.4 240.068 17.7867 241.295 18.56C242.521 19.3333 243.428 20.3867 244.015 21.72V17.68H250.815V40H244.015V35.96C243.428 37.2933 242.521 38.3467 241.295 39.12C240.068 39.8933 238.601 40.28 236.895 40.28C235.055 40.28 233.401 39.8267 231.935 38.92C230.495 37.9867 229.348 36.6533 228.495 34.92C227.668 33.1867 227.255 31.16 227.255 28.84C227.255 26.4933 227.668 24.4667 228.495 22.76C229.348 21.0267 230.495 19.7067 231.935 18.8C233.401 17.8667 235.055 17.4 236.895 17.4ZM239.095 23.4C237.628 23.4 236.441 23.88 235.535 24.84C234.655 25.8 234.215 27.1333 234.215 28.84C234.215 30.5467 234.655 31.88 235.535 32.84C236.441 33.8 237.628 34.28 239.095 34.28C240.535 34.28 241.708 33.7867 242.615 32.8C243.548 31.8133 244.015 30.4933 244.015 28.84C244.015 27.16 243.548 25.84 242.615 24.88C241.708 23.8933 240.535 23.4 239.095 23.4ZM268.164 34.12V40H265.084C262.471 40 260.431 39.36 258.964 38.08C257.524 36.7733 256.804 34.6267 256.804 31.64V23.44H253.804V17.68H256.804V12.2H263.644V17.68H268.124V23.44H263.644V31.76C263.644 32.64 263.817 33.2533 264.164 33.6C264.537 33.9467 265.151 34.12 266.004 34.12H268.164ZM271.368 11.4C271.368 10.36 271.742 9.50667 272.488 8.84C273.235 8.14666 274.222 7.8 275.448 7.8C276.675 7.8 277.662 8.14666 278.408 8.84C279.155 9.50667 279.528 10.36 279.528 11.4C279.528 12.4133 279.155 13.2667 278.408 13.96C277.662 14.6267 276.675 14.96 275.448 14.96C274.222 14.96 273.235 14.6267 272.488 13.96C271.742 13.2667 271.368 12.4133 271.368 11.4ZM278.848 17.68V40H272.008V17.68H278.848ZM294.011 17.4C296.224 17.4 298.198 17.8667 299.931 18.8C301.691 19.7067 303.064 21.0267 304.051 22.76C305.064 24.4933 305.571 26.52 305.571 28.84C305.571 31.16 305.064 33.1867 304.051 34.92C303.064 36.6533 301.691 37.9867 299.931 38.92C298.198 39.8267 296.224 40.28 294.011 40.28C291.798 40.28 289.811 39.8267 288.051 38.92C286.291 37.9867 284.904 36.6533 283.891 34.92C282.904 33.1867 282.411 31.16 282.411 28.84C282.411 26.52 282.904 24.4933 283.891 22.76C284.904 21.0267 286.291 19.7067 288.051 18.8C289.811 17.8667 291.798 17.4 294.011 17.4ZM294.011 23.32C292.704 23.32 291.598 23.8 290.691 24.76C289.811 25.6933 289.371 27.0533 289.371 28.84C289.371 30.6267 289.811 31.9867 290.691 32.92C291.598 33.8533 292.704 34.32 294.011 34.32C295.318 34.32 296.411 33.8533 297.291 32.92C298.171 31.9867 298.611 30.6267 298.611 28.84C298.611 27.0533 298.171 25.6933 297.291 24.76C296.411 23.8 295.318 23.32 294.011 23.32ZM323.278 17.44C325.838 17.44 327.864 18.2933 329.358 20C330.878 21.7067 331.638 24.0533 331.638 27.04V40H324.798V27.84C324.798 26.3467 324.398 25.1867 323.598 24.36C322.824 23.5067 321.784 23.08 320.478 23.08C319.091 23.08 317.984 23.52 317.158 24.4C316.358 25.28 315.958 26.5333 315.958 28.16V40H309.118V17.68H315.958V21.76C316.598 20.4267 317.544 19.3733 318.798 18.6C320.078 17.8267 321.571 17.44 323.278 17.44Z" fill="#091E42"/>
<g clip-path="url(#clip1_34_1014)">
<path d="M3.204 71.292V78.834C3.204 79.962 3.45 80.802 3.942 81.354C4.446 81.906 5.148 82.182 6.048 82.182C6.936 82.182 7.626 81.906 8.118 81.354C8.622 80.802 8.874 79.962 8.874 78.834V71.292H10.926V78.834C10.926 80.574 10.476 81.894 9.576 82.794C8.676 83.682 7.488 84.126 6.012 84.126C4.548 84.126 3.372 83.682 2.484 82.794C1.596 81.894 1.152 80.574 1.152 78.834V71.292H3.204ZM19.0062 73.956C19.8702 73.956 20.6382 74.16 21.3102 74.568C21.9942 74.976 22.5282 75.564 22.9122 76.332C23.2962 77.1 23.4882 78 23.4882 79.032C23.4882 80.076 23.2962 80.982 22.9122 81.75C22.5282 82.518 21.9942 83.106 21.3102 83.514C20.6382 83.922 19.8702 84.126 19.0062 84.126C18.1062 84.126 17.3382 83.904 16.7022 83.46C16.0662 83.016 15.6222 82.428 15.3702 81.696V84H13.3182V70.68H15.3702V76.386C15.6222 75.654 16.0662 75.066 16.7022 74.622C17.3382 74.178 18.1062 73.956 19.0062 73.956ZM18.3762 75.756C17.8002 75.756 17.2842 75.894 16.8282 76.17C16.3722 76.434 16.0122 76.818 15.7482 77.322C15.4842 77.814 15.3522 78.384 15.3522 79.032C15.3522 79.692 15.4842 80.268 15.7482 80.76C16.0122 81.252 16.3722 81.636 16.8282 81.912C17.2842 82.176 17.8002 82.308 18.3762 82.308C19.2882 82.308 20.0202 82.02 20.5722 81.444C21.1242 80.856 21.4002 80.052 21.4002 79.032C21.4002 78.024 21.1242 77.226 20.5722 76.638C20.0202 76.05 19.2882 75.756 18.3762 75.756ZM34.6807 78.564C34.6807 78.9 34.6567 79.194 34.6087 79.446H26.9767C27.0127 80.466 27.2947 81.222 27.8227 81.714C28.3507 82.206 29.0047 82.452 29.7847 82.452C30.4687 82.452 31.0447 82.278 31.5127 81.93C31.9927 81.582 32.2867 81.12 32.3947 80.544H34.5907C34.4587 81.24 34.1827 81.858 33.7627 82.398C33.3427 82.938 32.7967 83.364 32.1247 83.676C31.4527 83.976 30.7027 84.126 29.8747 84.126C28.9147 84.126 28.0627 83.922 27.3187 83.514C26.5867 83.106 26.0107 82.518 25.5907 81.75C25.1707 80.982 24.9607 80.076 24.9607 79.032C24.9607 78 25.1707 77.1 25.5907 76.332C26.0107 75.564 26.5867 74.976 27.3187 74.568C28.0627 74.16 28.9147 73.956 29.8747 73.956C30.8467 73.956 31.6927 74.16 32.4127 74.568C33.1447 74.964 33.7027 75.516 34.0867 76.224C34.4827 76.92 34.6807 77.7 34.6807 78.564ZM32.6107 78.51C32.6347 77.862 32.5207 77.322 32.2687 76.89C32.0287 76.446 31.6927 76.122 31.2607 75.918C30.8407 75.702 30.3787 75.594 29.8747 75.594C29.0707 75.594 28.3987 75.84 27.8587 76.332C27.3187 76.824 27.0247 77.55 26.9767 78.51H32.6107ZM38.7139 76.026C39.0499 75.378 39.5299 74.868 40.1539 74.496C40.7779 74.112 41.4979 73.92 42.3139 73.92V76.152H41.7019C40.8019 76.152 40.0759 76.374 39.5239 76.818C38.9839 77.25 38.7139 77.97 38.7139 78.978V84H36.6619V74.082H38.7139V76.026Z" fill="#344563"/>
<circle cx="59" cy="78" r="4" fill="#C1C7D0"/>
<path d="M77.952 82.722H82.452V84H76.314V71.31H77.952V82.722ZM93.2087 78.51C93.2087 78.858 93.1847 79.158 93.1367 79.41H85.2347C85.2707 80.538 85.5887 81.384 86.1887 81.948C86.8007 82.512 87.5447 82.794 88.4207 82.794C89.2127 82.794 89.8727 82.596 90.4007 82.2C90.9407 81.792 91.2707 81.252 91.3907 80.58H93.1367C93.0167 81.264 92.7467 81.876 92.3267 82.416C91.9187 82.956 91.3847 83.376 90.7247 83.676C90.0647 83.976 89.3207 84.126 88.4927 84.126C87.5447 84.126 86.7047 83.922 85.9727 83.514C85.2407 83.106 84.6647 82.524 84.2447 81.768C83.8367 81 83.6327 80.1 83.6327 79.068C83.6327 78.036 83.8367 77.136 84.2447 76.368C84.6647 75.6 85.2407 75.012 85.9727 74.604C86.7047 74.196 87.5447 73.992 88.4927 73.992C89.4527 73.992 90.2867 74.196 90.9947 74.604C91.7147 75.012 92.2607 75.558 92.6327 76.242C93.0167 76.926 93.2087 77.682 93.2087 78.51ZM91.5527 78.618C91.5887 77.886 91.4687 77.274 91.1927 76.782C90.9167 76.29 90.5387 75.924 90.0587 75.684C89.5787 75.444 89.0567 75.324 88.4927 75.324C87.5927 75.324 86.8367 75.606 86.2247 76.17C85.6127 76.722 85.2827 77.538 85.2347 78.618H91.5527ZM99.4011 73.992C100.361 73.992 101.171 74.232 101.831 74.712C102.503 75.192 102.971 75.834 103.235 76.638V74.118H104.873V84H103.235V81.48C102.971 82.284 102.503 82.926 101.831 83.406C101.171 83.886 100.361 84.126 99.4011 84.126C98.5251 84.126 97.7451 83.922 97.0611 83.514C96.3771 83.106 95.8371 82.524 95.4411 81.768C95.0571 81 94.8651 80.1 94.8651 79.068C94.8651 78.036 95.0571 77.136 95.4411 76.368C95.8371 75.6 96.3771 75.012 97.0611 74.604C97.7451 74.196 98.5251 73.992 99.4011 73.992ZM99.8691 75.45C98.8611 75.45 98.0511 75.774 97.4391 76.422C96.8391 77.058 96.5391 77.94 96.5391 79.068C96.5391 80.196 96.8391 81.084 97.4391 81.732C98.0511 82.368 98.8611 82.686 99.8691 82.686C100.517 82.686 101.093 82.536 101.597 82.236C102.113 81.936 102.515 81.516 102.803 80.976C103.091 80.424 103.235 79.788 103.235 79.068C103.235 78.348 103.091 77.712 102.803 77.16C102.515 76.608 102.113 76.188 101.597 75.9C101.093 75.6 100.517 75.45 99.8691 75.45ZM111.53 73.992C112.49 73.992 113.3 74.232 113.96 74.712C114.632 75.192 115.1 75.834 115.364 76.638V70.68H117.002V84H115.364V81.48C115.1 82.284 114.632 82.926 113.96 83.406C113.3 83.886 112.49 84.126 111.53 84.126C110.654 84.126 109.874 83.922 109.19 83.514C108.506 83.106 107.966 82.524 107.57 81.768C107.186 81 106.994 80.1 106.994 79.068C106.994 78.036 107.186 77.136 107.57 76.368C107.966 75.6 108.506 75.012 109.19 74.604C109.874 74.196 110.654 73.992 111.53 73.992ZM111.998 75.45C110.99 75.45 110.18 75.774 109.568 76.422C108.968 77.058 108.668 77.94 108.668 79.068C108.668 80.196 108.968 81.084 109.568 81.732C110.18 82.368 110.99 82.686 111.998 82.686C112.646 82.686 113.222 82.536 113.726 82.236C114.242 81.936 114.644 81.516 114.932 80.976C115.22 80.424 115.364 79.788 115.364 79.068C115.364 78.348 115.22 77.712 114.932 77.16C114.644 76.608 114.242 76.188 113.726 75.9C113.222 75.6 112.646 75.45 111.998 75.45ZM134.748 77.646C134.748 78.93 134.49 80.052 133.974 81.012C133.458 81.96 132.696 82.698 131.688 83.226C130.692 83.742 129.492 84 128.088 84H124.056V71.31H128.088C129.492 71.31 130.692 71.568 131.688 72.084C132.696 72.588 133.458 73.32 133.974 74.28C134.49 75.228 134.748 76.35 134.748 77.646ZM127.962 82.524C129.618 82.524 130.884 82.098 131.76 81.246C132.636 80.394 133.074 79.194 133.074 77.646C133.074 76.098 132.636 74.898 131.76 74.046C130.896 73.182 129.63 72.75 127.962 72.75H125.694V82.524H127.962ZM146.049 78.51C146.049 78.858 146.025 79.158 145.977 79.41H138.075C138.111 80.538 138.429 81.384 139.029 81.948C139.641 82.512 140.385 82.794 141.261 82.794C142.053 82.794 142.713 82.596 143.241 82.2C143.781 81.792 144.111 81.252 144.231 80.58H145.977C145.857 81.264 145.587 81.876 145.167 82.416C144.759 82.956 144.225 83.376 143.565 83.676C142.905 83.976 142.161 84.126 141.333 84.126C140.385 84.126 139.545 83.922 138.813 83.514C138.081 83.106 137.505 82.524 137.085 81.768C136.677 81 136.473 80.1 136.473 79.068C136.473 78.036 136.677 77.136 137.085 76.368C137.505 75.6 138.081 75.012 138.813 74.604C139.545 74.196 140.385 73.992 141.333 73.992C142.293 73.992 143.127 74.196 143.835 74.604C144.555 75.012 145.101 75.558 145.473 76.242C145.857 76.926 146.049 77.682 146.049 78.51ZM144.393 78.618C144.429 77.886 144.309 77.274 144.033 76.782C143.757 76.29 143.379 75.924 142.899 75.684C142.419 75.444 141.897 75.324 141.333 75.324C140.433 75.324 139.677 75.606 139.065 76.17C138.453 76.722 138.123 77.538 138.075 78.618H144.393ZM152.025 82.254L155.085 74.118H156.849L152.979 84H151.035L147.165 74.118H148.929L152.025 82.254ZM167.547 78.51C167.547 78.858 167.523 79.158 167.475 79.41H159.573C159.609 80.538 159.927 81.384 160.527 81.948C161.139 82.512 161.883 82.794 162.759 82.794C163.551 82.794 164.211 82.596 164.739 82.2C165.279 81.792 165.609 81.252 165.729 80.58H167.475C167.355 81.264 167.085 81.876 166.665 82.416C166.257 82.956 165.723 83.376 165.063 83.676C164.403 83.976 163.659 84.126 162.831 84.126C161.883 84.126 161.043 83.922 160.311 83.514C159.579 83.106 159.003 82.524 158.583 81.768C158.175 81 157.971 80.1 157.971 79.068C157.971 78.036 158.175 77.136 158.583 76.368C159.003 75.6 159.579 75.012 160.311 74.604C161.043 74.196 161.883 73.992 162.831 73.992C163.791 73.992 164.625 74.196 165.333 74.604C166.053 75.012 166.599 75.558 166.971 76.242C167.355 76.926 167.547 77.682 167.547 78.51ZM165.891 78.618C165.927 77.886 165.807 77.274 165.531 76.782C165.255 76.29 164.877 75.924 164.397 75.684C163.917 75.444 163.395 75.324 162.831 75.324C161.931 75.324 161.175 75.606 160.563 76.17C159.951 76.722 159.621 77.538 159.573 78.618H165.891ZM171.327 70.68V84H169.689V70.68H171.327ZM178.442 73.992C179.39 73.992 180.236 74.196 180.98 74.604C181.736 75.012 182.324 75.6 182.744 76.368C183.176 77.136 183.392 78.036 183.392 79.068C183.392 80.1 183.176 81 182.744 81.768C182.324 82.524 181.736 83.106 180.98 83.514C180.236 83.922 179.39 84.126 178.442 84.126C177.494 84.126 176.642 83.922 175.886 83.514C175.142 83.106 174.554 82.524 174.122 81.768C173.69 81 173.474 80.1 173.474 79.068C173.474 78.036 173.69 77.136 174.122 76.368C174.554 75.6 175.142 75.012 175.886 74.604C176.642 74.196 177.494 73.992 178.442 73.992ZM178.442 75.432C177.854 75.432 177.308 75.564 176.804 75.828C176.312 76.092 175.91 76.5 175.598 77.052C175.298 77.592 175.148 78.264 175.148 79.068C175.148 79.86 175.298 80.532 175.598 81.084C175.91 81.624 176.312 82.026 176.804 82.29C177.308 82.554 177.854 82.686 178.442 82.686C179.03 82.686 179.57 82.554 180.062 82.29C180.566 82.026 180.968 81.624 181.268 81.084C181.58 80.532 181.736 79.86 181.736 79.068C181.736 78.264 181.58 77.592 181.268 77.052C180.968 76.5 180.566 76.092 180.062 75.828C179.57 75.564 179.03 75.432 178.442 75.432ZM190.981 73.992C191.857 73.992 192.637 74.196 193.321 74.604C194.005 75.012 194.539 75.6 194.923 76.368C195.319 77.136 195.517 78.036 195.517 79.068C195.517 80.1 195.319 81 194.923 81.768C194.539 82.524 194.005 83.106 193.321 83.514C192.637 83.922 191.857 84.126 190.981 84.126C190.021 84.126 189.205 83.886 188.533 83.406C187.873 82.914 187.417 82.272 187.165 81.48V88.68H185.527V74.118H187.165V76.638C187.417 75.846 187.873 75.21 188.533 74.73C189.205 74.238 190.021 73.992 190.981 73.992ZM190.513 75.45C189.877 75.45 189.301 75.6 188.785 75.9C188.269 76.188 187.867 76.608 187.579 77.16C187.291 77.712 187.147 78.348 187.147 79.068C187.147 79.788 187.291 80.424 187.579 80.976C187.867 81.516 188.269 81.936 188.785 82.236C189.301 82.536 189.877 82.686 190.513 82.686C191.533 82.686 192.343 82.368 192.943 81.732C193.555 81.084 193.861 80.196 193.861 79.068C193.861 77.94 193.555 77.058 192.943 76.422C192.343 75.774 191.533 75.45 190.513 75.45ZM206.746 78.51C206.746 78.858 206.722 79.158 206.674 79.41H198.772C198.808 80.538 199.126 81.384 199.726 81.948C200.338 82.512 201.082 82.794 201.958 82.794C202.75 82.794 203.41 82.596 203.938 82.2C204.478 81.792 204.808 81.252 204.928 80.58H206.674C206.554 81.264 206.284 81.876 205.864 82.416C205.456 82.956 204.922 83.376 204.262 83.676C203.602 83.976 202.858 84.126 202.03 84.126C201.082 84.126 200.242 83.922 199.51 83.514C198.778 83.106 198.202 82.524 197.782 81.768C197.374 81 197.17 80.1 197.17 79.068C197.17 78.036 197.374 77.136 197.782 76.368C198.202 75.6 198.778 75.012 199.51 74.604C200.242 74.196 201.082 73.992 202.03 73.992C202.99 73.992 203.824 74.196 204.532 74.604C205.252 75.012 205.798 75.558 206.17 76.242C206.554 76.926 206.746 77.682 206.746 78.51ZM205.09 78.618C205.126 77.886 205.006 77.274 204.73 76.782C204.454 76.29 204.076 75.924 203.596 75.684C203.116 75.444 202.594 75.324 202.03 75.324C201.13 75.324 200.374 75.606 199.762 76.17C199.15 76.722 198.82 77.538 198.772 78.618H205.09ZM210.526 76.116C210.85 75.432 211.324 74.904 211.948 74.532C212.572 74.148 213.316 73.956 214.18 73.956V75.738H213.676C212.752 75.738 211.996 75.978 211.408 76.458C210.82 76.926 210.526 77.706 210.526 78.798V84H208.888V74.118H210.526V76.116Z" fill="#6B778C"/>
<circle cx="231" cy="78" r="4" fill="#C1C7D0"/>
<path d="M247.756 82.74C249.796 81.372 251.428 80.016 252.652 78.672C253.876 77.316 254.488 76.056 254.488 74.892C254.488 74.172 254.302 73.596 253.93 73.164C253.57 72.72 252.982 72.498 252.166 72.498C251.326 72.498 250.69 72.768 250.258 73.308C249.826 73.836 249.586 74.568 249.538 75.504H247.918C248.002 74.088 248.44 73.002 249.232 72.246C250.024 71.478 251.044 71.094 252.292 71.094C253.48 71.094 254.422 71.412 255.118 72.048C255.814 72.684 256.162 73.584 256.162 74.748C256.162 75.708 255.85 76.686 255.226 77.682C254.614 78.666 253.84 79.584 252.904 80.436C251.98 81.276 251.026 81.99 250.042 82.578H256.486V83.928H247.756V82.74ZM258.239 77.574C258.239 79.614 258.575 81.204 259.247 82.344C259.919 83.484 261.083 84.054 262.739 84.054C264.395 84.054 265.559 83.484 266.231 82.344C266.915 81.204 267.257 79.614 267.257 77.574C267.257 75.558 266.915 73.98 266.231 72.84C265.559 71.7 264.395 71.13 262.739 71.13C261.083 71.13 259.919 71.7 259.247 72.84C258.575 73.968 258.239 75.546 258.239 77.574ZM265.637 77.574C265.637 78.618 265.559 79.494 265.403 80.202C265.259 80.898 264.977 81.456 264.557 81.876C264.137 82.296 263.531 82.506 262.739 82.506C261.959 82.506 261.359 82.296 260.939 81.876C260.519 81.456 260.231 80.898 260.075 80.202C259.931 79.494 259.859 78.618 259.859 77.574C259.859 76.542 259.931 75.678 260.075 74.982C260.231 74.286 260.519 73.734 260.939 73.326C261.359 72.906 261.959 72.696 262.739 72.696C263.531 72.696 264.137 72.906 264.557 73.326C264.977 73.734 265.259 74.286 265.403 74.982C265.559 75.678 265.637 76.542 265.637 77.574ZM268.504 72.84V71.31H272.14V84H270.412V72.84H268.504ZM274.716 74.298C274.716 73.674 274.884 73.104 275.22 72.588C275.556 72.072 276.054 71.664 276.714 71.364C277.374 71.064 278.16 70.914 279.072 70.914C279.984 70.914 280.764 71.064 281.412 71.364C282.072 71.664 282.57 72.072 282.906 72.588C283.242 73.104 283.41 73.674 283.41 74.298C283.41 75.006 283.218 75.618 282.834 76.134C282.45 76.65 281.868 77.016 281.088 77.232C281.928 77.46 282.582 77.856 283.05 78.42C283.518 78.984 283.752 79.68 283.752 80.508C283.752 81.708 283.326 82.65 282.474 83.334C281.622 84.018 280.488 84.36 279.072 84.36C277.656 84.36 276.522 84.018 275.67 83.334C274.818 82.65 274.392 81.708 274.392 80.508C274.392 79.68 274.62 78.984 275.076 78.42C275.544 77.856 276.198 77.46 277.038 77.232C276.258 77.016 275.676 76.65 275.292 76.134C274.908 75.618 274.716 75.006 274.716 74.298ZM276.336 74.532C276.336 75.252 276.582 75.81 277.074 76.206C277.566 76.59 278.232 76.782 279.072 76.782C279.912 76.782 280.572 76.59 281.052 76.206C281.544 75.81 281.79 75.252 281.79 74.532C281.79 73.812 281.544 73.26 281.052 72.876C280.56 72.48 279.9 72.282 279.072 72.282C278.244 72.282 277.578 72.48 277.074 72.876C276.582 73.26 276.336 73.812 276.336 74.532ZM275.994 80.418C275.994 81.234 276.27 81.87 276.822 82.326C277.374 82.77 278.124 82.992 279.072 82.992C280.008 82.992 280.752 82.764 281.304 82.308C281.856 81.852 282.132 81.222 282.132 80.418C282.132 79.602 281.844 78.984 281.268 78.564C280.692 78.144 279.96 77.934 279.072 77.934C278.172 77.934 277.434 78.144 276.858 78.564C276.282 78.984 275.994 79.602 275.994 80.418Z" fill="#6B778C"/>
</g>
</g>
<defs>
<clipPath id="clip0_34_1014">
<rect width="496" height="98" fill="white"/>
</clipPath>
<clipPath id="clip1_34_1014">
<rect width="285" height="40" fill="white" transform="translate(0 58)"/>
</clipPath>
</defs>
</svg>
