<svg width="496" height="98" viewBox="0 0 496 98" fill="none" xmlns="http://www.w3.org/2000/svg">
<g clip-path="url(#clip0_34_984)">
<path d="M20.8 11.72V17.16H9.2V23.36H18.16V28.56H9.2V40H2.36V11.72H20.8ZM32.7931 17.4C34.4998 17.4 35.9665 17.7867 37.1931 18.56C38.4198 19.3333 39.3265 20.3867 39.9131 21.72V17.68H46.7131V40H39.9131V35.96C39.3265 37.2933 38.4198 38.3467 37.1931 39.12C35.9665 39.8933 34.4998 40.28 32.7931 40.28C30.9531 40.28 29.2998 39.8267 27.8331 38.92C26.3931 37.9867 25.2465 36.6533 24.3931 34.92C23.5665 33.1867 23.1531 31.16 23.1531 28.84C23.1531 26.4933 23.5665 24.4667 24.3931 22.76C25.2465 21.0267 26.3931 19.7067 27.8331 18.8C29.2998 17.8667 30.9531 17.4 32.7931 17.4ZM34.9931 23.4C33.5265 23.4 32.3398 23.88 31.4331 24.84C30.5531 25.8 30.1131 27.1333 30.1131 28.84C30.1131 30.5467 30.5531 31.88 31.4331 32.84C32.3398 33.8 33.5265 34.28 34.9931 34.28C36.4331 34.28 37.6065 33.7867 38.5131 32.8C39.4465 31.8133 39.9131 30.4933 39.9131 28.84C39.9131 27.16 39.4465 25.84 38.5131 24.88C37.6065 23.8933 36.4331 23.4 34.9931 23.4ZM61.5025 17.4C64.3825 17.4 66.7958 18.2 68.7425 19.8C70.6892 21.3733 71.9158 23.5467 72.4225 26.32H65.1825C64.9692 25.36 64.5292 24.6133 63.8625 24.08C63.1958 23.5467 62.3558 23.28 61.3425 23.28C60.1425 23.28 59.1558 23.76 58.3825 24.72C57.6092 25.6533 57.2225 27.0267 57.2225 28.84C57.2225 30.6533 57.6092 32.04 58.3825 33C59.1558 33.9333 60.1425 34.4 61.3425 34.4C62.3558 34.4 63.1958 34.1333 63.8625 33.6C64.5292 33.0667 64.9692 32.32 65.1825 31.36H72.4225C71.9158 34.1333 70.6892 36.32 68.7425 37.92C66.7958 39.4933 64.3825 40.28 61.5025 40.28C59.3158 40.28 57.3692 39.8267 55.6625 38.92C53.9825 37.9867 52.6625 36.6533 51.7025 34.92C50.7425 33.1867 50.2625 31.16 50.2625 28.84C50.2625 26.4933 50.7292 24.4667 51.6625 22.76C52.6225 21.0267 53.9558 19.7067 55.6625 18.8C57.3692 17.8667 59.3158 17.4 61.5025 17.4ZM97.1928 28.24C97.1928 28.8 97.1261 29.4133 96.9928 30.08H81.5128C81.5928 31.76 82.0195 32.9733 82.7928 33.72C83.5661 34.44 84.5528 34.8 85.7528 34.8C86.7661 34.8 87.6061 34.5467 88.2728 34.04C88.9395 33.5333 89.3795 32.88 89.5928 32.08H96.8328C96.5395 33.6533 95.8995 35.0667 94.9128 36.32C93.9261 37.5467 92.6728 38.52 91.1528 39.24C89.6328 39.9333 87.9395 40.28 86.0728 40.28C83.8861 40.28 81.9395 39.8267 80.2328 38.92C78.5528 37.9867 77.2328 36.6533 76.2728 34.92C75.3128 33.1867 74.8328 31.16 74.8328 28.84C74.8328 26.4933 75.2995 24.4667 76.2328 22.76C77.1928 21.0267 78.5261 19.7067 80.2328 18.8C81.9395 17.8667 83.8861 17.4 86.0728 17.4C88.2861 17.4 90.2328 17.8533 91.9128 18.76C93.5928 19.6667 94.8861 20.9467 95.7928 22.6C96.7261 24.2267 97.1928 26.1067 97.1928 28.24ZM90.2728 27.2C90.2995 25.7333 89.8995 24.64 89.0728 23.92C88.2728 23.1733 87.2728 22.8 86.0728 22.8C84.8195 22.8 83.7795 23.1733 82.9528 23.92C82.1261 24.6667 81.6595 25.76 81.5528 27.2H90.2728ZM114.678 17.4C116.518 17.4 118.158 17.8667 119.598 18.8C121.065 19.7067 122.212 21.0267 123.038 22.76C123.892 24.4667 124.318 26.4933 124.318 28.84C124.318 31.16 123.892 33.1867 123.038 34.92C122.212 36.6533 121.065 37.9867 119.598 38.92C118.158 39.8267 116.518 40.28 114.678 40.28C112.972 40.28 111.505 39.8933 110.278 39.12C109.052 38.3467 108.158 37.2933 107.598 35.96V40H100.758V10.4H107.598V21.72C108.158 20.3867 109.052 19.3333 110.278 18.56C111.505 17.7867 112.972 17.4 114.678 17.4ZM112.478 23.4C111.038 23.4 109.852 23.8933 108.918 24.88C108.012 25.84 107.558 27.16 107.558 28.84C107.558 30.4933 108.012 31.8133 108.918 32.8C109.852 33.7867 111.038 34.28 112.478 34.28C113.945 34.28 115.118 33.8 115.998 32.84C116.905 31.88 117.358 30.5467 117.358 28.84C117.358 27.1333 116.905 25.8 115.998 24.84C115.118 23.88 113.945 23.4 112.478 23.4ZM138.308 17.4C140.521 17.4 142.494 17.8667 144.228 18.8C145.988 19.7067 147.361 21.0267 148.348 22.76C149.361 24.4933 149.868 26.52 149.868 28.84C149.868 31.16 149.361 33.1867 148.348 34.92C147.361 36.6533 145.988 37.9867 144.228 38.92C142.494 39.8267 140.521 40.28 138.308 40.28C136.094 40.28 134.108 39.8267 132.348 38.92C130.588 37.9867 129.201 36.6533 128.188 34.92C127.201 33.1867 126.708 31.16 126.708 28.84C126.708 26.52 127.201 24.4933 128.188 22.76C129.201 21.0267 130.588 19.7067 132.348 18.8C134.108 17.8667 136.094 17.4 138.308 17.4ZM138.308 23.32C137.001 23.32 135.894 23.8 134.988 24.76C134.108 25.6933 133.668 27.0533 133.668 28.84C133.668 30.6267 134.108 31.9867 134.988 32.92C135.894 33.8533 137.001 34.32 138.308 34.32C139.614 34.32 140.708 33.8533 141.588 32.92C142.468 31.9867 142.908 30.6267 142.908 28.84C142.908 27.0533 142.468 25.6933 141.588 24.76C140.708 23.8 139.614 23.32 138.308 23.32ZM163.855 17.4C166.068 17.4 168.041 17.8667 169.775 18.8C171.535 19.7067 172.908 21.0267 173.895 22.76C174.908 24.4933 175.415 26.52 175.415 28.84C175.415 31.16 174.908 33.1867 173.895 34.92C172.908 36.6533 171.535 37.9867 169.775 38.92C168.041 39.8267 166.068 40.28 163.855 40.28C161.641 40.28 159.655 39.8267 157.895 38.92C156.135 37.9867 154.748 36.6533 153.735 34.92C152.748 33.1867 152.255 31.16 152.255 28.84C152.255 26.52 152.748 24.4933 153.735 22.76C154.748 21.0267 156.135 19.7067 157.895 18.8C159.655 17.8667 161.641 17.4 163.855 17.4ZM163.855 23.32C162.548 23.32 161.441 23.8 160.535 24.76C159.655 25.6933 159.215 27.0533 159.215 28.84C159.215 30.6267 159.655 31.9867 160.535 32.92C161.441 33.8533 162.548 34.32 163.855 34.32C165.161 34.32 166.255 33.8533 167.135 32.92C168.015 31.9867 168.455 30.6267 168.455 28.84C168.455 27.0533 168.015 25.6933 167.135 24.76C166.255 23.8 165.161 23.32 163.855 23.32ZM192.482 40L185.802 30.52V40H178.962V10.4H185.802V26.64L192.482 17.68H200.522L191.522 28.84L200.722 40H192.482ZM220.947 10.48C222.921 10.48 224.614 10.8267 226.027 11.52C227.441 12.1867 228.507 13.12 229.227 14.32C229.974 15.4933 230.347 16.8267 230.347 18.32C230.347 20.16 229.867 21.64 228.907 22.76C227.974 23.88 226.801 24.5867 225.387 24.88V25.08C229.041 26.2533 230.867 28.5333 230.867 31.92C230.867 33.5467 230.494 35 229.747 36.28C229.001 37.5333 227.907 38.52 226.467 39.24C225.054 39.9333 223.347 40.28 221.347 40.28C218.094 40.28 215.507 39.48 213.587 37.88C211.694 36.28 210.667 33.84 210.507 30.56H217.187C217.241 31.8133 217.587 32.8 218.227 33.52C218.867 34.24 219.801 34.6 221.027 34.6C222.014 34.6 222.787 34.3067 223.347 33.72C223.934 33.1333 224.227 32.3733 224.227 31.44C224.227 29.12 222.547 27.96 219.187 27.96H217.907V22.4H219.147C222.161 22.4533 223.667 21.3733 223.667 19.16C223.667 18.2 223.401 17.4667 222.867 16.96C222.361 16.4267 221.667 16.16 220.787 16.16C219.827 16.16 219.067 16.4933 218.507 17.16C217.947 17.8 217.627 18.6667 217.547 19.76H210.867C211.001 16.7733 211.934 14.48 213.667 12.88C215.401 11.28 217.827 10.48 220.947 10.48ZM249.086 19.52C248.899 18.3733 248.526 17.5067 247.966 16.92C247.433 16.3333 246.659 16.04 245.646 16.04C244.099 16.04 242.993 16.76 242.326 18.2C241.686 19.6133 241.393 21.8 241.446 24.76C241.899 23.6667 242.673 22.8133 243.766 22.2C244.886 21.56 246.179 21.24 247.646 21.24C250.313 21.24 252.419 22.0533 253.966 23.68C255.513 25.28 256.286 27.5867 256.286 30.6C256.286 32.4933 255.899 34.1733 255.126 35.64C254.353 37.1067 253.206 38.2533 251.686 39.08C250.193 39.88 248.393 40.28 246.286 40.28C242.153 40.28 239.299 39 237.726 36.44C236.153 33.88 235.366 30.3333 235.366 25.8C235.366 20.5733 236.206 16.7333 237.886 14.28C239.566 11.8 242.299 10.56 246.086 10.56C249.073 10.56 251.339 11.4133 252.886 13.12C254.433 14.8 255.299 16.9333 255.486 19.52H249.086ZM241.966 30.28C241.966 31.5067 242.313 32.5067 243.006 33.28C243.699 34.0267 244.713 34.4 246.046 34.4C247.246 34.4 248.179 34.0667 248.846 33.4C249.539 32.7333 249.886 31.76 249.886 30.48C249.886 29.2 249.539 28.2267 248.846 27.56C248.153 26.8667 247.206 26.52 246.006 26.52C244.859 26.52 243.899 26.8533 243.126 27.52C242.353 28.16 241.966 29.08 241.966 30.28ZM259.883 25.56C259.883 29.9867 260.776 33.4933 262.563 36.08C264.35 38.6667 267.203 39.96 271.123 39.96C275.016 39.96 277.856 38.6667 279.643 36.08C281.456 33.4933 282.363 29.9867 282.363 25.56C282.363 21.16 281.456 17.68 279.643 15.12C277.856 12.5333 275.016 11.24 271.123 11.24C267.203 11.24 264.35 12.5333 262.563 15.12C260.776 17.68 259.883 21.16 259.883 25.56ZM275.563 25.56C275.563 28.0933 275.256 30.0533 274.643 31.44C274.056 32.8 272.883 33.48 271.123 33.48C269.336 33.48 268.136 32.8 267.523 31.44C266.91 30.0533 266.603 28.0933 266.603 25.56C266.603 23.0533 266.91 21.12 267.523 19.76C268.136 18.4 269.336 17.72 271.123 17.72C272.883 17.72 274.056 18.4 274.643 19.76C275.256 21.0933 275.563 23.0267 275.563 25.56Z" fill="#091E42"/>
<g clip-path="url(#clip1_34_984)">
<path d="M8.748 71.292V72.948H3.294V76.89H7.794V78.474H3.294V84H1.242V71.292H8.748ZM18.154 81.246H12.79L11.818 84H9.62198L14.302 71.49H16.66L21.322 84H19.126L18.154 81.246ZM17.578 79.662L15.472 73.722L13.366 79.662H17.578ZM28.5155 71.166C30.0755 71.166 31.3715 71.562 32.4035 72.354C33.4355 73.146 34.1315 74.22 34.4915 75.576H32.3135C32.0135 74.808 31.5335 74.202 30.8735 73.758C30.2255 73.302 29.4275 73.074 28.4795 73.074C27.7235 73.074 27.0455 73.26 26.4455 73.632C25.8575 74.004 25.3895 74.538 25.0415 75.234C24.7055 75.918 24.5375 76.722 24.5375 77.646C24.5375 78.558 24.7055 79.362 25.0415 80.058C25.3895 80.742 25.8575 81.27 26.4455 81.642C27.0455 82.014 27.7235 82.2 28.4795 82.2C29.4275 82.2 30.2255 81.978 30.8735 81.534C31.5335 81.078 32.0135 80.472 32.3135 79.716H34.4915C34.1315 81.072 33.4355 82.146 32.4035 82.938C31.3715 83.718 30.0755 84.108 28.5155 84.108C27.3155 84.108 26.2535 83.838 25.3295 83.298C24.4055 82.746 23.6915 81.984 23.1875 81.012C22.6835 80.028 22.4315 78.906 22.4315 77.646C22.4315 76.386 22.6835 75.27 23.1875 74.298C23.6915 73.314 24.4055 72.546 25.3295 71.994C26.2535 71.442 27.3155 71.166 28.5155 71.166ZM38.5909 72.948V76.8H43.2709V78.384H38.5909V82.326H43.8109V84H36.5389V71.292H43.8109V72.948H38.5909ZM52.4265 77.448C53.1945 77.604 53.8125 77.97 54.2805 78.546C54.7605 79.122 55.0005 79.794 55.0005 80.562C55.0005 81.618 54.6465 82.458 53.9385 83.082C53.2305 83.694 52.2045 84 50.8605 84H45.8025V71.292H50.7705C52.0425 71.292 53.0145 71.58 53.6865 72.156C54.3705 72.72 54.7125 73.5 54.7125 74.496C54.7125 75.3 54.5025 75.954 54.0825 76.458C53.6625 76.95 53.1105 77.28 52.4265 77.448ZM47.8545 76.764H50.3925C51.1125 76.764 51.6585 76.596 52.0305 76.26C52.4145 75.924 52.6065 75.456 52.6065 74.856C52.6065 74.268 52.4145 73.806 52.0305 73.47C51.6585 73.134 51.0885 72.966 50.3205 72.966H47.8545V76.764ZM50.4465 82.308C51.2265 82.308 51.8265 82.134 52.2465 81.786C52.6785 81.426 52.8945 80.928 52.8945 80.292C52.8945 79.656 52.6785 79.158 52.2465 78.798C51.8145 78.438 51.2085 78.258 50.4285 78.258H47.8545V82.308H50.4465ZM62.8155 71.13C63.9915 71.13 65.0535 71.406 66.0015 71.958C66.9615 72.51 67.7115 73.284 68.2515 74.28C68.8035 75.264 69.0795 76.38 69.0795 77.628C69.0795 78.876 68.8035 79.998 68.2515 80.994C67.7115 81.978 66.9615 82.752 66.0015 83.316C65.0535 83.868 63.9915 84.144 62.8155 84.144C61.6275 84.144 60.5535 83.868 59.5935 83.316C58.6455 82.752 57.8955 81.978 57.3435 80.994C56.7915 79.998 56.5155 78.876 56.5155 77.628C56.5155 76.38 56.7915 75.264 57.3435 74.28C57.8955 73.284 58.6455 72.51 59.5935 71.958C60.5535 71.406 61.6275 71.13 62.8155 71.13ZM62.8155 73.038C61.9995 73.038 61.2735 73.224 60.6375 73.596C60.0015 73.968 59.5035 74.502 59.1435 75.198C58.7955 75.894 58.6215 76.704 58.6215 77.628C58.6215 78.552 58.7955 79.362 59.1435 80.058C59.5035 80.754 60.0015 81.288 60.6375 81.66C61.2735 82.032 61.9995 82.218 62.8155 82.218C63.6195 82.218 64.3335 82.032 64.9575 81.66C65.5935 81.288 66.0855 80.754 66.4335 80.058C66.7935 79.362 66.9735 78.552 66.9735 77.628C66.9735 76.704 66.7935 75.894 66.4335 75.198C66.0855 74.502 65.5935 73.968 64.9575 73.596C64.3335 73.224 63.6195 73.038 62.8155 73.038ZM77.0362 71.13C78.2122 71.13 79.2742 71.406 80.2222 71.958C81.1822 72.51 81.9322 73.284 82.4722 74.28C83.0242 75.264 83.3002 76.38 83.3002 77.628C83.3002 78.876 83.0242 79.998 82.4722 80.994C81.9322 81.978 81.1822 82.752 80.2222 83.316C79.2742 83.868 78.2122 84.144 77.0362 84.144C75.8482 84.144 74.7742 83.868 73.8142 83.316C72.8662 82.752 72.1162 81.978 71.5642 80.994C71.0122 79.998 70.7362 78.876 70.7362 77.628C70.7362 76.38 71.0122 75.264 71.5642 74.28C72.1162 73.284 72.8662 72.51 73.8142 71.958C74.7742 71.406 75.8482 71.13 77.0362 71.13ZM77.0362 73.038C76.2202 73.038 75.4942 73.224 74.8582 73.596C74.2222 73.968 73.7242 74.502 73.3642 75.198C73.0162 75.894 72.8422 76.704 72.8422 77.628C72.8422 78.552 73.0162 79.362 73.3642 80.058C73.7242 80.754 74.2222 81.288 74.8582 81.66C75.4942 82.032 76.2202 82.218 77.0362 82.218C77.8402 82.218 78.5542 82.032 79.1782 81.66C79.8142 81.288 80.3062 80.754 80.6542 80.058C81.0142 79.362 81.1942 78.552 81.1942 77.628C81.1942 76.704 81.0142 75.894 80.6542 75.198C80.3062 74.502 79.8142 73.968 79.1782 73.596C78.5542 73.224 77.8402 73.038 77.0362 73.038ZM89.3489 77.574L94.9469 84H92.4449L87.4229 78.114V84H85.3709V71.292H87.4229V77.106L92.4629 71.292H94.9469L89.3489 77.574Z" fill="#344563"/>
<circle cx="112" cy="78" r="4" fill="#C1C7D0"/>
<path d="M136.496 71.31V72.642H130.952V77.034H135.65V78.312H130.952V84H129.314V71.31H136.496ZM147.221 74.118V84H145.583V81.678C145.331 82.482 144.881 83.1 144.233 83.532C143.597 83.952 142.853 84.162 142.001 84.162C140.861 84.162 139.937 83.796 139.229 83.064C138.521 82.32 138.167 81.258 138.167 79.878V74.118H139.805V79.716C139.805 80.7 140.057 81.462 140.561 82.002C141.065 82.53 141.749 82.794 142.613 82.794C143.513 82.794 144.233 82.506 144.773 81.93C145.313 81.342 145.583 80.49 145.583 79.374V74.118H147.221ZM151.483 70.68V84H149.845V70.68H151.483ZM155.755 70.68V84H154.117V70.68H155.755ZM170.863 80.706C170.863 81.306 170.719 81.864 170.431 82.38C170.143 82.896 169.705 83.316 169.117 83.64C168.529 83.964 167.803 84.126 166.939 84.126C166.099 84.126 165.349 83.976 164.689 83.676C164.041 83.364 163.519 82.944 163.123 82.416C162.739 81.876 162.517 81.264 162.457 80.58H164.203C164.239 80.94 164.359 81.294 164.563 81.642C164.779 81.978 165.079 82.26 165.463 82.488C165.859 82.704 166.333 82.812 166.885 82.812C167.605 82.812 168.157 82.62 168.541 82.236C168.925 81.852 169.117 81.36 169.117 80.76C169.117 80.244 168.979 79.824 168.703 79.5C168.439 79.176 168.109 78.924 167.713 78.744C167.317 78.552 166.777 78.348 166.093 78.132C165.289 77.868 164.641 77.622 164.149 77.394C163.669 77.154 163.255 76.8 162.907 76.332C162.571 75.864 162.403 75.246 162.403 74.478C162.403 73.818 162.559 73.236 162.871 72.732C163.195 72.228 163.651 71.838 164.239 71.562C164.839 71.286 165.541 71.148 166.345 71.148C167.593 71.148 168.583 71.454 169.315 72.066C170.047 72.666 170.473 73.434 170.593 74.37H168.829C168.733 73.866 168.475 73.422 168.055 73.038C167.635 72.654 167.065 72.462 166.345 72.462C165.685 72.462 165.157 72.636 164.761 72.984C164.365 73.32 164.167 73.8 164.167 74.424C164.167 74.916 164.293 75.318 164.545 75.63C164.809 75.93 165.133 76.17 165.517 76.35C165.901 76.518 166.429 76.71 167.101 76.926C167.917 77.19 168.571 77.442 169.063 77.682C169.567 77.922 169.993 78.288 170.341 78.78C170.689 79.26 170.863 79.902 170.863 80.706ZM177.782 82.56V84H176.558C175.55 84 174.794 83.76 174.29 83.28C173.798 82.8 173.552 81.996 173.552 80.868V75.54H172.076V74.118H173.552V71.652H175.208V74.118H177.764V75.54H175.208V80.904C175.208 81.54 175.322 81.978 175.55 82.218C175.79 82.446 176.198 82.56 176.774 82.56H177.782ZM183.831 73.992C184.791 73.992 185.601 74.232 186.261 74.712C186.933 75.192 187.401 75.834 187.665 76.638V74.118H189.303V84H187.665V81.48C187.401 82.284 186.933 82.926 186.261 83.406C185.601 83.886 184.791 84.126 183.831 84.126C182.955 84.126 182.175 83.922 181.491 83.514C180.807 83.106 180.267 82.524 179.871 81.768C179.487 81 179.295 80.1 179.295 79.068C179.295 78.036 179.487 77.136 179.871 76.368C180.267 75.6 180.807 75.012 181.491 74.604C182.175 74.196 182.955 73.992 183.831 73.992ZM184.299 75.45C183.291 75.45 182.481 75.774 181.869 76.422C181.269 77.058 180.969 77.94 180.969 79.068C180.969 80.196 181.269 81.084 181.869 81.732C182.481 82.368 183.291 82.686 184.299 82.686C184.947 82.686 185.523 82.536 186.027 82.236C186.543 81.936 186.945 81.516 187.233 80.976C187.521 80.424 187.665 79.788 187.665 79.068C187.665 78.348 187.521 77.712 187.233 77.16C186.945 76.608 186.543 76.188 186.027 75.9C185.523 75.6 184.947 75.45 184.299 75.45ZM196.284 73.992C197.544 73.992 198.588 74.328 199.416 75C200.244 75.672 200.754 76.572 200.946 77.7H199.218C199.098 76.992 198.768 76.44 198.228 76.044C197.7 75.636 197.04 75.432 196.248 75.432C195.672 75.432 195.144 75.564 194.664 75.828C194.196 76.092 193.818 76.5 193.53 77.052C193.242 77.592 193.098 78.264 193.098 79.068C193.098 79.872 193.242 80.55 193.53 81.102C193.818 81.642 194.196 82.044 194.664 82.308C195.144 82.572 195.672 82.704 196.248 82.704C197.04 82.704 197.7 82.5 198.228 82.092C198.768 81.684 199.098 81.126 199.218 80.418H200.946C200.754 81.558 200.244 82.464 199.416 83.136C198.588 83.796 197.544 84.126 196.284 84.126C195.336 84.126 194.496 83.922 193.764 83.514C193.032 83.106 192.456 82.524 192.036 81.768C191.628 81 191.424 80.1 191.424 79.068C191.424 78.036 191.628 77.136 192.036 76.368C192.456 75.6 193.032 75.012 193.764 74.604C194.496 74.196 195.336 73.992 196.284 73.992ZM208.507 84L204.727 79.554V84H203.089V70.68H204.727V78.42L208.453 74.118H210.451L206.023 79.032L210.559 84H208.507ZM227.141 77.646C227.141 78.93 226.883 80.052 226.367 81.012C225.851 81.96 225.089 82.698 224.081 83.226C223.085 83.742 221.885 84 220.481 84H216.449V71.31H220.481C221.885 71.31 223.085 71.568 224.081 72.084C225.089 72.588 225.851 73.32 226.367 74.28C226.883 75.228 227.141 76.35 227.141 77.646ZM220.355 82.524C222.011 82.524 223.277 82.098 224.153 81.246C225.029 80.394 225.467 79.194 225.467 77.646C225.467 76.098 225.029 74.898 224.153 74.046C223.289 73.182 222.023 72.75 220.355 72.75H218.087V82.524H220.355ZM238.441 78.51C238.441 78.858 238.417 79.158 238.369 79.41H230.467C230.503 80.538 230.821 81.384 231.421 81.948C232.033 82.512 232.777 82.794 233.653 82.794C234.445 82.794 235.105 82.596 235.633 82.2C236.173 81.792 236.503 81.252 236.623 80.58H238.369C238.249 81.264 237.979 81.876 237.559 82.416C237.151 82.956 236.617 83.376 235.957 83.676C235.297 83.976 234.553 84.126 233.725 84.126C232.777 84.126 231.937 83.922 231.205 83.514C230.473 83.106 229.897 82.524 229.477 81.768C229.069 81 228.865 80.1 228.865 79.068C228.865 78.036 229.069 77.136 229.477 76.368C229.897 75.6 230.473 75.012 231.205 74.604C231.937 74.196 232.777 73.992 233.725 73.992C234.685 73.992 235.519 74.196 236.227 74.604C236.947 75.012 237.493 75.558 237.865 76.242C238.249 76.926 238.441 77.682 238.441 78.51ZM236.785 78.618C236.821 77.886 236.701 77.274 236.425 76.782C236.149 76.29 235.771 75.924 235.291 75.684C234.811 75.444 234.289 75.324 233.725 75.324C232.825 75.324 232.069 75.606 231.457 76.17C230.845 76.722 230.515 77.538 230.467 78.618H236.785ZM244.418 82.254L247.478 74.118H249.242L245.372 84H243.428L239.558 74.118H241.322L244.418 82.254Z" fill="#6B778C"/>
<circle cx="266" cy="78" r="4" fill="#C1C7D0"/>
<path d="M282.756 82.74C284.796 81.372 286.428 80.016 287.652 78.672C288.876 77.316 289.488 76.056 289.488 74.892C289.488 74.172 289.302 73.596 288.93 73.164C288.57 72.72 287.982 72.498 287.166 72.498C286.326 72.498 285.69 72.768 285.258 73.308C284.826 73.836 284.586 74.568 284.538 75.504H282.918C283.002 74.088 283.44 73.002 284.232 72.246C285.024 71.478 286.044 71.094 287.292 71.094C288.48 71.094 289.422 71.412 290.118 72.048C290.814 72.684 291.162 73.584 291.162 74.748C291.162 75.708 290.85 76.686 290.226 77.682C289.614 78.666 288.84 79.584 287.904 80.436C286.98 81.276 286.026 81.99 285.042 82.578H291.486V83.928H282.756V82.74ZM293.239 77.574C293.239 79.614 293.575 81.204 294.247 82.344C294.919 83.484 296.083 84.054 297.739 84.054C299.395 84.054 300.559 83.484 301.231 82.344C301.915 81.204 302.257 79.614 302.257 77.574C302.257 75.558 301.915 73.98 301.231 72.84C300.559 71.7 299.395 71.13 297.739 71.13C296.083 71.13 294.919 71.7 294.247 72.84C293.575 73.968 293.239 75.546 293.239 77.574ZM300.637 77.574C300.637 78.618 300.559 79.494 300.403 80.202C300.259 80.898 299.977 81.456 299.557 81.876C299.137 82.296 298.531 82.506 297.739 82.506C296.959 82.506 296.359 82.296 295.939 81.876C295.519 81.456 295.231 80.898 295.075 80.202C294.931 79.494 294.859 78.618 294.859 77.574C294.859 76.542 294.931 75.678 295.075 74.982C295.231 74.286 295.519 73.734 295.939 73.326C296.359 72.906 296.959 72.696 297.739 72.696C298.531 72.696 299.137 72.906 299.557 73.326C299.977 73.734 300.259 74.286 300.403 74.982C300.559 75.678 300.637 76.542 300.637 77.574ZM303.504 72.84V71.31H307.14V84H305.412V72.84H303.504ZM318.014 72.606H311.498V76.854C311.798 76.446 312.23 76.122 312.794 75.882C313.358 75.642 313.976 75.522 314.648 75.522C315.548 75.522 316.292 75.714 316.88 76.098C317.48 76.47 317.918 76.968 318.194 77.592C318.482 78.204 318.626 78.888 318.626 79.644C318.626 80.952 318.26 82.02 317.527 82.848C316.796 83.676 315.722 84.09 314.306 84.09C313.034 84.09 311.996 83.748 311.192 83.064C310.388 82.368 309.938 81.438 309.842 80.274H311.462C311.594 81.018 311.9 81.6 312.38 82.02C312.872 82.428 313.49 82.632 314.234 82.632C315.158 82.632 315.854 82.356 316.322 81.804C316.79 81.252 317.024 80.526 317.024 79.626C317.024 78.75 316.784 78.066 316.304 77.574C315.824 77.082 315.146 76.836 314.27 76.836C313.646 76.836 313.1 76.974 312.632 77.25C312.164 77.514 311.81 77.874 311.57 78.33H309.986V71.148H318.014V72.606Z" fill="#6B778C"/>
</g>
</g>
<defs>
<clipPath id="clip0_34_984">
<rect width="496" height="98" fill="white"/>
</clipPath>
<clipPath id="clip1_34_984">
<rect width="320" height="40" fill="white" transform="translate(0 58)"/>
</clipPath>
</defs>
</svg>
